<svg xmlns="http://www.w3.org/2000/svg" xmlns:xlink="http://www.w3.org/1999/xlink" width="84" height="75" viewBox="0 0 84 75">
  <defs>
    <clipPath id="clip-Cloud_Solutions_">
      <rect width="84" height="83"/>
    </clipPath>
  </defs>
  <g id="Cloud_Solutions_" data-name="Cloud Solutions " clip-path="url(#clip-Cloud_Solutions_)">
    <path id="Path_185" data-name="Path 185" d="M5,12.177A4.551,4.551,0,0,1,9.375,7.511h65.75A4.551,4.551,0,0,1,79.5,12.177V62.093a4.554,4.554,0,0,1-4.375,4.669H53.49V69.9h5.183a1.166,1.166,0,0,1,1.116.831l2.1,5.552A1.167,1.167,0,0,1,60.8,77.853v0H23.7A1.163,1.163,0,0,1,22.642,76.2l2.1-5.549a1.162,1.162,0,0,1,1.086-.753v0h5.183V66.762H9.375A4.552,4.552,0,0,1,5,62.093Zm32.658,13.71H46.6a1.164,1.164,0,1,0,0-2.328H37.658a1.164,1.164,0,1,0,0,2.328ZM72.7,12.927H53.26a1.164,1.164,0,0,0,0,2.328H72.7a1.164,1.164,0,0,0,0-2.328ZM50.586,25.887h5.759a1.164,1.164,0,1,0,0-2.328H50.586a1.164,1.164,0,0,0,0,2.328ZM37.658,20.571H60.144a1.164,1.164,0,0,0,0-2.328H37.658a1.164,1.164,0,1,0,0,2.328Zm11.812-7.644H37.658a1.164,1.164,0,1,0,0,2.328H49.471a1.164,1.164,0,1,0,0-2.328ZM37.658,44.612a1.163,1.163,0,0,0-1.164,1.164v6.538a1.163,1.163,0,0,0,1.164,1.164H72.7a1.163,1.163,0,0,0,1.164-1.164v-21.6A1.163,1.163,0,0,0,72.7,29.55H65.693a1.163,1.163,0,0,0-1.164,1.164v3.744H58.686a1.163,1.163,0,0,0-1.164,1.164v2.826H51.679a1.163,1.163,0,0,0-1.164,1.164v2.231H44.672a1.163,1.163,0,0,0-1.164,1.164v1.6H37.665ZM43.5,46.94H38.822v4.21H43.5ZM71.535,31.878H66.856V51.146h4.679ZM52.839,43v8.142h4.679V40.777H52.839Zm-2.328,1.167H45.832v6.975h4.679Zm14.018-7.389H59.85v14.36h4.679ZM41.48,39.962A49.506,49.506,0,0,0,65.265,25.275l.061.873a1.162,1.162,0,1,0,2.318-.165L67.387,22.4a1.168,1.168,0,0,0-.453-1.09,1.182,1.182,0,0,0-.905-.22l-3.7.365a1.16,1.16,0,1,0,.226,2.309l1.019-.1A47.2,47.2,0,0,1,40.836,37.734a1.159,1.159,0,1,0,.637,2.228ZM25.513,51.147H15.706a1.164,1.164,0,0,0,0,2.328h9.807a1.164,1.164,0,0,0,0-2.328ZM12.45,48.932a1.166,1.166,0,1,0-1.381-1.145,1.165,1.165,0,0,0,1.381,1.145ZM32.013,46.62H15.707a1.164,1.164,0,0,0,0,2.328H32.013a1.164,1.164,0,0,0,0-2.328Zm-6.5-4.527H15.706a1.164,1.164,0,0,0,0,2.328h9.807a1.164,1.164,0,0,0,0-2.328ZM12.45,39.875a1.167,1.167,0,1,0-1.384-1.145,1.165,1.165,0,0,0,1.384,1.145Zm19.563-2.312H15.707a1.164,1.164,0,1,0,0,2.328H32.013a1.164,1.164,0,0,0,0-2.328ZM20.221,25.628V18.576A7.149,7.149,0,1,0,28.44,26.8H21.388a1.163,1.163,0,0,1-1.164-1.164Zm2.328-8.31a1.163,1.163,0,0,0-1.164-1.164,9.474,9.474,0,1,0,9.474,9.474,1.163,1.163,0,0,0-1.164-1.164H22.549Zm9.17,3.919a7.153,7.153,0,0,0-5.888-5.888v5.888ZM31.366,15.7a9.448,9.448,0,0,0-6.7-2.774A1.163,1.163,0,0,0,23.5,14.091V22.4a1.163,1.163,0,0,0,1.164,1.164h8.31A1.163,1.163,0,0,0,34.141,22.4a9.448,9.448,0,0,0-2.774-6.7ZM7.329,56.259H77.172V12.176a2.212,2.212,0,0,0-2.047-2.338l-65.75,0a2.214,2.214,0,0,0-2.047,2.338Zm69.843,2.328H7.329v3.505A2.212,2.212,0,0,0,9.376,64.43h65.75a2.214,2.214,0,0,0,2.047-2.338ZM52.329,72.226h-25.7l-1.248,3.3H59.119l-1.248-3.3H52.326Zm-1.164-5.465H33.339V69.9H51.165ZM39.052,62.367h6.4a1.164,1.164,0,1,0,0-2.328h-6.4a1.164,1.164,0,1,0,0,2.328Z" transform="translate(0 -5.511)" fill="#fff" stroke="rgba(0,0,0,0)" stroke-miterlimit="10" stroke-width="1" fillRule="evenodd"/>
  </g>
</svg>
