<svg xmlns="http://www.w3.org/2000/svg" xmlns:xlink="http://www.w3.org/1999/xlink" width="84" height="83" viewBox="0 0 84 83">
  <defs>
    <clipPath id="clip-Consulting">
      <rect width="84" height="83"/>
    </clipPath>
  </defs>
  <g id="Consulting" clip-path="url(#clip-Consulting)">
    <g id="Group_1011" data-name="Group 1011" transform="translate(-610 -1265)">
      <path id="Path_31" data-name="Path 31" d="M73.827,31.477h-.5a33.911,33.911,0,0,0-67.646,0h-.5A5.059,5.059,0,0,0,0,36.414v9.875a5.059,5.059,0,0,0,5.173,4.938H6.431a22.538,22.538,0,0,0,15.9,15.783,3.7,3.7,0,1,0,.4-2.449A19.73,19.73,0,0,1,8.978,51.227h4.6V31.477H8.149a31.445,31.445,0,0,1,62.7,0H65.422v19.75h8.405A5.059,5.059,0,0,0,79,46.289V36.414A5.059,5.059,0,0,0,73.827,31.477ZM11.109,33.945V48.758H5.173a2.6,2.6,0,0,1-2.7-2.469V36.414a2.6,2.6,0,0,1,2.7-2.469ZM76.531,46.289a2.6,2.6,0,0,1-2.7,2.469H67.891V33.945h5.937a2.6,2.6,0,0,1,2.7,2.469Z" transform="translate(611 1267)" fill="#fff"/>
      <path id="Path_32" data-name="Path 32" d="M67.494,72.22,64.432,66.1l-.017.009a21,21,0,1,0-8.889,4.365l2.958,5.915L57.156,77,63.3,90.1h2.563L60.243,78.124l7.491-3.462L74.961,90.1h2.563L68.867,71.586ZM50.984,68.5A18.516,18.516,0,1,1,69.5,49.984,18.537,18.537,0,0,1,50.984,68.5Zm9.742,6.848-2.783-5.566a20.89,20.89,0,0,0,4.47-2.2l2.839,5.677Z" transform="translate(599.516 1255.898)" fill="#fff"/>
    </g>
  </g>
</svg>
