<svg xmlns="http://www.w3.org/2000/svg" xmlns:xlink="http://www.w3.org/1999/xlink" width="84" height="90" viewBox="0 0 84 90">
  <defs>
    <clipPath id="clip-Data_Analitics">
      <rect width="84" height="90"/>
    </clipPath>
  </defs>
  <g id="Data_Analitics" data-name="Data Analitics" clip-path="url(#clip-Data_Analitics)">
    <g id="noun-cloud-technology-2761703" transform="translate(-0.94 2.072)">
      <g id="Group_39" data-name="Group 39" transform="translate(1.94 0.928)">
        <path id="Path_36" data-name="Path 36" d="M69.26,21.514c-.457,0-.915.022-1.37.066C71.31,2.23,45.136-7.156,35.305,9.657A12.407,12.407,0,0,0,29.15,8.032,12.569,12.569,0,0,0,16.624,21.514h-.1a14.579,14.579,0,1,0,0,29.158h15.4V59.7a.973.973,0,0,0,.973.973h3.076V70.937H18.311l2.462-2.462A.973.973,0,0,0,19.4,67.1l-4.119,4.119a.978.978,0,0,0,.014,1.39l4.115,4.115a.973.973,0,0,0,1.376-1.376L18.32,72.884H36.95a.973.973,0,0,0,.973-.973V60.676h4V82.21L39.44,79.847A.973.973,0,1,0,38.1,81.255l4.1,3.909.026.025,0,0a.978.978,0,0,0,1.343,0l4.119-3.928a.973.973,0,0,0-1.343-1.409L43.865,82.22V60.676h3.121V71.91a.973.973,0,0,0,.973.973H66.59l-2.463,2.463A.973.973,0,0,0,65.5,76.722l4.116-4.115a.974.974,0,0,0,.014-1.39L65.513,67.1a.973.973,0,1,0-1.376,1.376L66.6,70.937H48.933V60.676h3.951a.973.973,0,0,0,.973-.973V50.671h15.4a14.579,14.579,0,1,0,0-29.158ZM51.911,58.73H33.874c0-19.715.281-17.609,0-18.023V40.68H51.911Zm17.349-10h-15.4v-3.51h4.817a3.982,3.982,0,1,0,0-1.946H53.857V39.706a.973.973,0,0,0-.973-.973h-4.87V34.214h9.516a3.982,3.982,0,1,0,0-1.946H47.04a.973.973,0,0,0-.973.973v5.493H38.8V29.244a.973.973,0,0,0-.973-.973H25.707a3.966,3.966,0,1,0,0,1.946H36.852v8.516H32.9a.973.973,0,0,0-.973.973v.561H27.294a3.966,3.966,0,1,0,0,1.946h4.629v6.511h-15.4a12.634,12.634,0,1,1,1.128-25.217.957.957,0,0,0,.815-.318.974.974,0,0,0,.23-.845c-1.777-8.728,8.546-15.924,16.415-10.514a.973.973,0,0,0,1.419-.361C44.96-5.107,70.458,4.351,65.7,22.5a.973.973,0,0,0,1.133,1.2,12.388,12.388,0,0,1,2.43-.241,12.632,12.632,0,1,1,0,25.265ZM60.488,44.25a2.027,2.027,0,1,1,2.019,2.019A2.03,2.03,0,0,1,60.488,44.25ZM59.347,33.208a1.994,1.994,0,1,1,0,.071c0-.014.008-.025.008-.038S59.347,33.219,59.347,33.208ZM23.9,29.252a2.028,2.028,0,1,1-2.036-2.035A2.03,2.03,0,0,1,23.9,29.252Zm1.587,12a2.027,2.027,0,1,1-2.019-2.036A2.022,2.022,0,0,1,25.484,41.249Z" transform="translate(-1.94 -0.928)" fill="#fff" stroke="#fff" stroke-miterlimit="10" stroke-width="1"/>
        <path id="Path_37" data-name="Path 37" d="M30.739,44.466H38.48a.973.973,0,0,0,.973-.973V35.752a.973.973,0,0,0-.973-.973H30.739a.973.973,0,0,0-.973.973v7.741A.973.973,0,0,0,30.739,44.466Zm.973-7.741h5.794v5.794H31.713Z" transform="translate(6.341 9.147)" fill="#fff" stroke="#fff" stroke-miterlimit="10" stroke-width="1"/>
      </g>
    </g>
  </g>
</svg>
