<svg xmlns="http://www.w3.org/2000/svg" xmlns:xlink="http://www.w3.org/1999/xlink" width="112" height="112" viewBox="0 0 112 112">
  <defs>
    <clipPath id="clip-Email">
      <rect width="112" height="112"/>
    </clipPath>
  </defs>
  <g id="Email" clip-path="url(#clip-Email)">
    <g id="Group_1134" data-name="Group 1134" transform="translate(-6208.499 -13036.999)">
      <g id="Group_1130" data-name="Group 1130" transform="translate(6214.499 13040.999)">
        <path id="Path_208" data-name="Path 208" d="M112.906,51.071l-9.575-7.529v-9.87A5.576,5.576,0,0,0,97.764,28.1H83.676L64.421,12.962a2.093,2.093,0,0,0-2.615,0L42.551,28.1H28.463A5.576,5.576,0,0,0,22.9,33.672v9.87l-9.6,7.529v.021a2.069,2.069,0,0,0-.8,1.624v55.443a5.589,5.589,0,0,0,5.568,5.568h90.071a5.576,5.576,0,0,0,5.568-5.568V52.716a2.018,2.018,0,0,0-.8-1.645ZM103.332,48.9l4.766,3.754-4.766,3.416ZM63.115,17.286l13.729,10.8H49.385Zm-36,16.387a1.359,1.359,0,0,1,1.35-1.35h69.3a1.359,1.359,0,0,1,1.35,1.35V59.063L63.916,84.2a1.362,1.362,0,0,1-1.582,0L27.116,59.041ZM22.9,48.9v7.149l-4.766-3.416Zm-6.179,56.561V56.806L41.035,74.184Zm2.193,4.049L44.472,76.651,59.867,87.659a5.576,5.576,0,0,0,6.474,0L81.736,76.651l25.581,32.857Zm90.6-4.049L85.194,74.184l24.316-17.377Z" transform="translate(-12.499 -12.504)" fill="#fff"/>
        <path id="Path_209" data-name="Path 209" d="M74.456,50.546a2.115,2.115,0,0,0-2.109-2.109H37.719a2.109,2.109,0,1,0,0,4.218h34.65a2.1,2.1,0,0,0,2.088-2.109Z" transform="translate(-4.416 0.063)" fill="#fff"/>
        <path id="Path_210" data-name="Path 210" d="M37.718,46.234h34.65a2.109,2.109,0,0,0,0-4.218H37.718a2.109,2.109,0,1,0,0,4.218Z" transform="translate(-4.417 -2.183)" fill="#fff"/>
        <path id="Path_211" data-name="Path 211" d="M37.718,39.827h34.65a2.109,2.109,0,0,0,0-4.218H37.718a2.109,2.109,0,1,0,0,4.218Z" transform="translate(-4.417 -4.423)" fill="#fff"/>
      </g>
    </g>
  </g>
</svg>
