<svg xmlns="http://www.w3.org/2000/svg" xmlns:xlink="http://www.w3.org/1999/xlink" width="64" height="64" viewBox="0 0 64 64">
  <defs>
    <clipPath id="clip-_64x64">
      <rect width="64" height="64"/>
    </clipPath>
  </defs>
  <g id="_64x64" data-name="64x64" clip-path="url(#clip-_64x64)">
    <rect width="64" height="64" fill="#5cad32"/>
    <g id="Group_2703" data-name="Group 2703" transform="translate(-10269.448 -11415.434)">
      <path id="Path_2564" data-name="Path 2564" d="M906.738,53.812q0-.191,0-.385a18.718,18.718,0,0,0-1.242-7.153,10.585,10.585,0,0,0-3.473-4.646,8.606,8.606,0,0,0-5.221-1.633,8.341,8.341,0,0,0-7.084,3.565q-2.622,3.565-2.622,9.867a25.28,25.28,0,0,0,.568,5.6,115.445,115.445,0,0,1,15.488-4.691c1.016-.2,2.237-.377,3.584-.525" transform="translate(9403.944 11390.771)" fill="#fff"/>
      <path id="Path_2565" data-name="Path 2565" d="M823.411,22.97C823.411,10.284,809.963,0,793.374,0s-30.037,10.284-30.037,22.97a18.452,18.452,0,0,0,2.638,9.426c2.68-1.162,7.669-3.281,13.269-5.434A19.469,19.469,0,0,1,778.1,20.04a18.042,18.042,0,0,1,1.771-8.211,13.037,13.037,0,0,1,5.06-5.474A15.074,15.074,0,0,1,792.776,4.4a15.338,15.338,0,0,1,7.866,1.909,12.77,12.77,0,0,1,5.014,5.336A17.237,17.237,0,0,1,807.4,19.58c0,.054,0,.108,0,.162,7.316-.471,15.445-.471,15.445-.471s-7.535,1.3-15.626,3.195a17.784,17.784,0,0,1-1.2,4.566,14.012,14.012,0,0,1-3.887,5.428,12.482,12.482,0,0,1-5.221,2.6v.111a21.76,21.76,0,0,0,3.3,3.7,15.159,15.159,0,0,0,4.316,2.747c.829.264,2.463.8,4.027,1.167,8.884-3.99,14.849-11.372,14.849-19.821" transform="translate(9508.111 11424.434)" fill="#fff"/>
      <path id="Path_2566" data-name="Path 2566" d="M837.387,208.09c-.2-.35-.689-1.079-1.056-1.618a15.467,15.467,0,0,1-6.89-1.987,12.534,12.534,0,0,1-2.14-1.575c-4.265,2.533-8.476,5.19-10.947,6.77A34.937,34.937,0,0,0,838,216.722a38.8,38.8,0,0,0,8.074-.84,20.3,20.3,0,0,1-8.684-7.792" transform="translate(9463.489 11253.65)" fill="#fff"/>
      <path id="Path_2567" data-name="Path 2567" d="M918.76,156.1a14.839,14.839,0,0,0,2.191-6.578,64.48,64.48,0,0,0-11.783,4.019c-1.5.773-3.182,1.7-4.919,2.7a8.293,8.293,0,0,0,7.174,3.4q4.922,0,7.337-3.542" transform="translate(9389.509 11298.584)" fill="#fff"/>
    </g>
  </g>
</svg>
