<svg xmlns="http://www.w3.org/2000/svg" xmlns:xlink="http://www.w3.org/1999/xlink" width="604" height="314" viewBox="0 0 604 314">
  <defs>
    <clipPath id="clip-path">
      <rect id="Rectangle_994" data-name="Rectangle 994" width="580.925" height="291.778" fill="none"/>
    </clipPath>
    <clipPath id="clip-Infographic">
      <rect width="604" height="314"/>
    </clipPath>
  </defs>
  <g id="Infographic" clip-path="url(#clip-Infographic)">
    <g id="Group_2340" data-name="Group 2340" transform="translate(12 13)">
      <line id="Line_59" data-name="Line 59" x2="18.768" transform="translate(23.417 12.648)" fill="none" stroke="#333" stroke-miterlimit="10" stroke-width="1"/>
      <line id="Line_60" data-name="Line 60" x2="28.151" transform="translate(42.736 36.207)" fill="none" stroke="#333" stroke-miterlimit="10" stroke-width="1"/>
      <line id="Line_61" data-name="Line 61" y2="50.783" transform="translate(42.184 13.024)" fill="none" stroke="#333" stroke-miterlimit="10" stroke-width="1"/>
      <g id="Group_2298" data-name="Group 2298">
        <g id="Group_2297" data-name="Group 2297" clip-path="url(#clip-path)">
          <path id="Path_1255" data-name="Path 1255" d="M41.2,11.675a2.319,2.319,0,1,0-2.318,2.318A2.318,2.318,0,0,0,41.2,11.675" transform="translate(3.802 0.973)" fill="#333"/>
          <path id="Path_1256" data-name="Path 1256" d="M1.922,0l8.812.088a1.9,1.9,0,0,1,1.639,1.066l.53,1.306,9.713.03a1.24,1.24,0,0,1,1.267,1.2L23.33,15.865a1.179,1.179,0,0,1-1.207,1.143H2.415a1.18,1.18,0,0,1-1.207-1.143L.655,1.2A1.239,1.239,0,0,1,1.922,0" transform="translate(0.068)" fill="#fa7564"/>
          <path id="Path_1257" data-name="Path 1257" d="M23.026,8.614,2.02,10.1,1.364,4,22.37,2.511Z" transform="translate(0.142 0.261)" fill="#fff"/>
          <path id="Path_1258" data-name="Path 1258" d="M23.328,3.956l-9.361.079a2.063,2.063,0,0,0-1.742.959l-.563,1.175L1.347,6.2A1.239,1.239,0,0,0,0,7.278L.588,18.232A1.18,1.18,0,0,0,1.87,19.26H22.8a1.18,1.18,0,0,0,1.282-1.029l.587-13.2a1.238,1.238,0,0,0-1.346-1.08" transform="translate(0 0.411)" fill="#ffca00"/>
          <line id="Line_62" data-name="Line 62" x2="18.768" transform="translate(23.417 63.431)" fill="none" stroke="#333" stroke-miterlimit="10" stroke-width="1"/>
          <path id="Path_1259" data-name="Path 1259" d="M41.2,57.675a2.319,2.319,0,1,0-2.318,2.318A2.318,2.318,0,0,0,41.2,57.675" transform="translate(3.802 5.756)" fill="#333"/>
          <path id="Path_1260" data-name="Path 1260" d="M1.922,46l8.812.088a1.9,1.9,0,0,1,1.639,1.066l.53,1.306,9.713.03a1.24,1.24,0,0,1,1.267,1.2L23.33,61.865a1.179,1.179,0,0,1-1.207,1.143H2.415a1.18,1.18,0,0,1-1.207-1.143L.655,47.2A1.239,1.239,0,0,1,1.922,46" transform="translate(0.068 4.783)" fill="#fa7564"/>
          <path id="Path_1261" data-name="Path 1261" d="M23.026,54.614,2.02,56.1,1.364,50,22.37,48.511Z" transform="translate(0.142 5.044)" fill="#fff"/>
          <path id="Path_1262" data-name="Path 1262" d="M23.328,49.956l-9.361.079a2.063,2.063,0,0,0-1.742.959l-.563,1.175L1.347,52.2A1.239,1.239,0,0,0,0,53.278L.588,64.232A1.18,1.18,0,0,0,1.87,65.26H22.8a1.18,1.18,0,0,0,1.282-1.029l.587-13.2a1.238,1.238,0,0,0-1.346-1.08" transform="translate(0 5.194)" fill="#ffca00"/>
        </g>
      </g>
      <text id="Data" transform="translate(5.315 11.742)" font-size="3" font-family="Montserrat-Bold, Montserrat" font-weight="700"><tspan x="0" y="0">Data</tspan></text>
      <text id="Data-2" data-name="Data" transform="translate(5.315 62.525)" font-size="3" font-family="Montserrat-Bold, Montserrat" font-weight="700"><tspan x="0" y="0">Data</tspan></text>
      <g id="Group_2300" data-name="Group 2300">
        <g id="Group_2299" data-name="Group 2299" clip-path="url(#clip-path)">
          <path id="Path_1263" data-name="Path 1263" d="M125.2,69.264a1.669,1.669,0,0,1-1.6,1.688H65.33a1.669,1.669,0,0,1-1.6-1.688V1.985A1.669,1.669,0,0,1,65.33.3H123.6a1.669,1.669,0,0,1,1.6,1.688Z" transform="translate(6.626 0.031)" fill="#4387ea"/>
          <path id="Path_1264" data-name="Path 1264" d="M96.132,25.217H83.218V49.029h17.855V30.157Z" transform="translate(8.653 2.622)" fill="#fff"/>
          <path id="Path_1265" data-name="Path 1265" d="M94.915,30.158h4.941l-4.941-4.941Z" transform="translate(9.869 2.622)" fill="#025a82"/>
          <rect id="Rectangle_995" data-name="Rectangle 995" width="15.588" height="1.423" transform="translate(93.005 45.731)" fill="#025a82"/>
          <rect id="Rectangle_996" data-name="Rectangle 996" width="15.588" height="1.423" transform="translate(93.005 42.899)" fill="#025a82"/>
          <rect id="Rectangle_997" data-name="Rectangle 997" width="15.588" height="1.423" transform="translate(93.005 40.068)" fill="#025a82"/>
          <rect id="Rectangle_998" data-name="Rectangle 998" width="15.588" height="1.423" transform="translate(93.005 37.088)" fill="#025a82"/>
          <rect id="Rectangle_999" data-name="Rectangle 999" width="10.539" height="1.423" transform="translate(93.005 34.256)" fill="#025a82"/>
          <path id="Path_1266" data-name="Path 1266" d="M110.9,48.978,93.359,62.732,75.593,49.266Z" transform="translate(7.86 5.093)" fill="#025a82"/>
          <rect id="Rectangle_1000" data-name="Rectangle 1000" width="5.071" height="6.208" transform="translate(98.66 64.774) rotate(-0.462)" fill="#025a82"/>
          <rect id="Rectangle_1001" data-name="Rectangle 1001" width="35.313" height="4.358" transform="translate(83.417 50.001) rotate(-0.468)" fill="#023f61"/>
        </g>
      </g>
      <text id="Data_Extraction" data-name="Data Extraction" transform="translate(78.554 13.95)" fill="#fff" font-size="3" font-family="Montserrat-Bold, Montserrat" font-weight="700"><tspan x="0" y="0">Data </tspan><tspan y="0" letter-spacing="-0.006em">E</tspan><tspan y="0">xt</tspan><tspan y="0" letter-spacing="-0.038em">r</tspan><tspan y="0" letter-spacing="0.004em">a</tspan><tspan y="0" letter-spacing="0.007em">c</tspan><tspan y="0">tion</tspan></text>
      <text id="MediQlogix" transform="translate(84.604 7.327)" fill="#fff" font-size="3" font-family="Montserrat-Bold, Montserrat" font-weight="700"><tspan x="0" y="0">MediQlogix</tspan></text>
      <g id="Group_2302" data-name="Group 2302">
        <g id="Group_2301" data-name="Group 2301" clip-path="url(#clip-path)">
          <path id="Path_1267" data-name="Path 1267" d="M64.2,32.675a2.319,2.319,0,1,0-2.318,2.318A2.318,2.318,0,0,0,64.2,32.675" transform="translate(6.193 3.156)" fill="#333"/>
          <line id="Line_63" data-name="Line 63" x2="18.768" transform="translate(23.417 123.046)" fill="none" stroke="#333" stroke-miterlimit="10" stroke-width="1"/>
          <line id="Line_64" data-name="Line 64" x2="28.151" transform="translate(42.736 146.605)" fill="none" stroke="#333" stroke-miterlimit="10" stroke-width="1"/>
          <line id="Line_65" data-name="Line 65" y2="50.783" transform="translate(42.184 123.422)" fill="none" stroke="#333" stroke-miterlimit="10" stroke-width="1"/>
          <path id="Path_1268" data-name="Path 1268" d="M41.2,111.675a2.319,2.319,0,1,0-2.318,2.318,2.318,2.318,0,0,0,2.318-2.318" transform="translate(3.802 11.371)" fill="#333"/>
          <path id="Path_1269" data-name="Path 1269" d="M1.922,100l8.812.088a1.9,1.9,0,0,1,1.639,1.066l.53,1.306,9.713.03a1.24,1.24,0,0,1,1.267,1.2l-.554,12.174a1.179,1.179,0,0,1-1.207,1.143H2.415a1.18,1.18,0,0,1-1.207-1.143L.655,101.2A1.239,1.239,0,0,1,1.922,100" transform="translate(0.068 10.398)" fill="#fa7564"/>
          <path id="Path_1270" data-name="Path 1270" d="M23.026,108.614,2.02,110.1,1.364,104l21.005-1.484Z" transform="translate(0.142 10.659)" fill="#fff"/>
          <path id="Path_1271" data-name="Path 1271" d="M23.328,103.956l-9.361.079a2.063,2.063,0,0,0-1.742.959l-.563,1.175L1.347,106.2A1.239,1.239,0,0,0,0,107.278l.588,10.954A1.18,1.18,0,0,0,1.87,119.26H22.8a1.18,1.18,0,0,0,1.282-1.029l.587-13.2a1.238,1.238,0,0,0-1.346-1.08" transform="translate(0 10.809)" fill="#ffca00"/>
          <line id="Line_66" data-name="Line 66" x2="18.768" transform="translate(23.417 173.829)" fill="none" stroke="#333" stroke-miterlimit="10" stroke-width="1"/>
          <path id="Path_1272" data-name="Path 1272" d="M41.2,157.675a2.319,2.319,0,1,0-2.318,2.318,2.318,2.318,0,0,0,2.318-2.318" transform="translate(3.802 16.154)" fill="#333"/>
          <path id="Path_1273" data-name="Path 1273" d="M1.922,146l8.812.088a1.9,1.9,0,0,1,1.639,1.066l.53,1.306,9.713.03a1.24,1.24,0,0,1,1.267,1.2l-.554,12.174a1.179,1.179,0,0,1-1.207,1.143H2.415a1.18,1.18,0,0,1-1.207-1.143L.655,147.2A1.239,1.239,0,0,1,1.922,146" transform="translate(0.068 15.181)" fill="#fa7564"/>
          <path id="Path_1274" data-name="Path 1274" d="M23.026,154.614,2.02,156.1,1.364,150l21.005-1.484Z" transform="translate(0.142 15.442)" fill="#fff"/>
          <path id="Path_1275" data-name="Path 1275" d="M23.328,149.956l-9.361.079a2.063,2.063,0,0,0-1.742.959l-.563,1.175L1.347,152.2A1.24,1.24,0,0,0,0,153.278l.588,10.954A1.18,1.18,0,0,0,1.87,165.26H22.8a1.18,1.18,0,0,0,1.282-1.029l.587-13.2a1.238,1.238,0,0,0-1.346-1.08" transform="translate(0 15.592)" fill="#ffca00"/>
        </g>
      </g>
      <text id="Data-3" data-name="Data" transform="translate(5.315 122.14)" font-size="3" font-family="Montserrat-Bold, Montserrat" font-weight="700"><tspan x="0" y="0">Data</tspan></text>
      <text id="Data-4" data-name="Data" transform="translate(5.315 172.923)" font-size="3" font-family="Montserrat-Bold, Montserrat" font-weight="700"><tspan x="0" y="0">Data</tspan></text>
      <g id="Group_2304" data-name="Group 2304">
        <g id="Group_2303" data-name="Group 2303" clip-path="url(#clip-path)">
          <path id="Path_1276" data-name="Path 1276" d="M125.2,169.264a1.669,1.669,0,0,1-1.6,1.688H65.33a1.669,1.669,0,0,1-1.6-1.688V101.985a1.669,1.669,0,0,1,1.6-1.688H123.6a1.669,1.669,0,0,1,1.6,1.688Z" transform="translate(6.626 10.429)" fill="#4387ea"/>
          <path id="Path_1277" data-name="Path 1277" d="M96.132,125.217H83.218v23.813h17.855V130.157Z" transform="translate(8.653 13.02)" fill="#fff"/>
          <path id="Path_1278" data-name="Path 1278" d="M94.915,130.158h4.941l-4.941-4.941Z" transform="translate(9.869 13.02)" fill="#025a82"/>
          <rect id="Rectangle_1004" data-name="Rectangle 1004" width="15.588" height="1.423" transform="translate(93.005 156.129)" fill="#025a82"/>
          <rect id="Rectangle_1005" data-name="Rectangle 1005" width="15.588" height="1.423" transform="translate(93.005 153.297)" fill="#025a82"/>
          <rect id="Rectangle_1006" data-name="Rectangle 1006" width="15.588" height="1.423" transform="translate(93.005 150.465)" fill="#025a82"/>
          <rect id="Rectangle_1007" data-name="Rectangle 1007" width="15.588" height="1.423" transform="translate(93.005 147.486)" fill="#025a82"/>
          <rect id="Rectangle_1008" data-name="Rectangle 1008" width="10.539" height="1.423" transform="translate(93.005 144.654)" fill="#025a82"/>
          <path id="Path_1279" data-name="Path 1279" d="M110.9,148.978,93.359,162.732,75.593,149.266Z" transform="translate(7.86 15.49)" fill="#025a82"/>
          <rect id="Rectangle_1009" data-name="Rectangle 1009" width="5.071" height="6.208" transform="translate(98.66 175.172) rotate(-0.462)" fill="#025a82"/>
          <rect id="Rectangle_1010" data-name="Rectangle 1010" width="35.313" height="4.358" transform="translate(83.417 160.399) rotate(-0.468)" fill="#023f61"/>
        </g>
      </g>
      <text id="Data_Extraction-2" data-name="Data Extraction" transform="translate(78.554 124.348)" fill="#fff" font-size="3" font-family="Montserrat-Bold, Montserrat" font-weight="700"><tspan x="0" y="0">Data </tspan><tspan y="0" letter-spacing="-0.006em">E</tspan><tspan y="0">xt</tspan><tspan y="0" letter-spacing="-0.038em">r</tspan><tspan y="0" letter-spacing="0.004em">a</tspan><tspan y="0" letter-spacing="0.007em">c</tspan><tspan y="0">tion</tspan></text>
      <text id="MediQlogix-2" data-name="MediQlogix" transform="translate(84.604 117.724)" fill="#fff" font-size="3" font-family="Montserrat-Bold, Montserrat" font-weight="700"><tspan x="0" y="0">MediQlogix</tspan></text>
      <g id="Group_2306" data-name="Group 2306">
        <g id="Group_2305" data-name="Group 2305" clip-path="url(#clip-path)">
          <path id="Path_1280" data-name="Path 1280" d="M64.2,132.675a2.319,2.319,0,1,0-2.318,2.318,2.318,2.318,0,0,0,2.318-2.318" transform="translate(6.193 13.554)" fill="#333"/>
          <line id="Line_67" data-name="Line 67" x2="28.151" transform="translate(132.158 33.999)" fill="none" stroke="#333" stroke-miterlimit="10" stroke-width="1"/>
          <line id="Line_68" data-name="Line 68" x2="72.863" transform="translate(132.158 147.709)" fill="none" stroke="#333" stroke-miterlimit="10" stroke-width="1"/>
          <line id="Line_69" data-name="Line 69" x2="41.399" transform="translate(272.916 147.709)" fill="none" stroke="#333" stroke-miterlimit="10" stroke-width="1"/>
          <line id="Line_70" data-name="Line 70" x2="41.399" transform="translate(459.488 147.709)" fill="none" stroke="#333" stroke-miterlimit="10" stroke-width="1"/>
          <line id="Line_71" data-name="Line 71" x2="28.151" transform="translate(132.158 257.003)" fill="none" stroke="#333" stroke-miterlimit="10" stroke-width="1"/>
          <line id="Line_72" data-name="Line 72" y2="224.107" transform="translate(159.758 32.895)" fill="none" stroke="#333" stroke-miterlimit="10" stroke-width="1"/>
          <path id="Path_1281" data-name="Path 1281" d="M147.2,30.675a2.319,2.319,0,1,0-2.318,2.318,2.318,2.318,0,0,0,2.318-2.318" transform="translate(14.823 2.948)" fill="#333"/>
          <path id="Path_1282" data-name="Path 1282" d="M147.2,232.675a2.319,2.319,0,1,0-2.318,2.318,2.318,2.318,0,0,0,2.318-2.318" transform="translate(14.823 23.952)" fill="#333"/>
          <line id="Line_73" data-name="Line 73" x2="18.768" transform="translate(23.417 233.444)" fill="none" stroke="#333" stroke-miterlimit="10" stroke-width="1"/>
          <line id="Line_74" data-name="Line 74" x2="28.151" transform="translate(42.736 257.003)" fill="none" stroke="#333" stroke-miterlimit="10" stroke-width="1"/>
          <line id="Line_75" data-name="Line 75" y2="50.783" transform="translate(42.184 233.819)" fill="none" stroke="#333" stroke-miterlimit="10" stroke-width="1"/>
          <path id="Path_1283" data-name="Path 1283" d="M41.2,211.675a2.319,2.319,0,1,0-2.318,2.318,2.318,2.318,0,0,0,2.318-2.318" transform="translate(3.802 21.768)" fill="#333"/>
          <path id="Path_1284" data-name="Path 1284" d="M1.922,200l8.812.088a1.9,1.9,0,0,1,1.639,1.066l.53,1.306,9.713.03a1.24,1.24,0,0,1,1.267,1.2l-.554,12.174a1.179,1.179,0,0,1-1.207,1.143H2.415a1.18,1.18,0,0,1-1.207-1.143L.655,201.2A1.239,1.239,0,0,1,1.922,200" transform="translate(0.068 20.795)" fill="#fa7564"/>
          <path id="Path_1285" data-name="Path 1285" d="M23.026,208.614,2.02,210.1,1.364,204l21.005-1.484Z" transform="translate(0.142 21.057)" fill="#fff"/>
          <path id="Path_1286" data-name="Path 1286" d="M23.328,203.956l-9.361.079a2.063,2.063,0,0,0-1.742.959l-.563,1.175L1.347,206.2A1.24,1.24,0,0,0,0,207.278l.588,10.954A1.18,1.18,0,0,0,1.87,219.26H22.8a1.18,1.18,0,0,0,1.282-1.029l.587-13.2a1.238,1.238,0,0,0-1.346-1.08" transform="translate(0 21.207)" fill="#ffca00"/>
          <line id="Line_76" data-name="Line 76" x2="18.768" transform="translate(23.417 284.227)" fill="none" stroke="#333" stroke-miterlimit="10" stroke-width="1"/>
          <path id="Path_1287" data-name="Path 1287" d="M41.2,257.675a2.319,2.319,0,1,0-2.318,2.318,2.318,2.318,0,0,0,2.318-2.318" transform="translate(3.802 26.551)" fill="#333"/>
          <path id="Path_1288" data-name="Path 1288" d="M1.922,246l8.812.088a1.9,1.9,0,0,1,1.639,1.066l.53,1.306,9.713.03a1.24,1.24,0,0,1,1.267,1.2l-.554,12.174a1.179,1.179,0,0,1-1.207,1.143H2.415a1.18,1.18,0,0,1-1.207-1.143L.655,247.2A1.239,1.239,0,0,1,1.922,246" transform="translate(0.068 25.578)" fill="#fa7564"/>
          <path id="Path_1289" data-name="Path 1289" d="M23.026,254.614,2.02,256.1,1.364,250l21.005-1.484Z" transform="translate(0.142 25.84)" fill="#fff"/>
          <path id="Path_1290" data-name="Path 1290" d="M23.328,249.956l-9.361.079a2.063,2.063,0,0,0-1.742.959l-.563,1.175L1.347,252.2A1.239,1.239,0,0,0,0,253.278l.588,10.954A1.18,1.18,0,0,0,1.87,265.26H22.8a1.18,1.18,0,0,0,1.282-1.029l.587-13.2a1.238,1.238,0,0,0-1.346-1.08" transform="translate(0 25.99)" fill="#ffca00"/>
        </g>
      </g>
      <text id="Data-5" data-name="Data" transform="translate(5.315 232.538)" font-size="3" font-family="Montserrat-Bold, Montserrat" font-weight="700"><tspan x="0" y="0">Data</tspan></text>
      <text id="Data-6" data-name="Data" transform="translate(5.315 283.321)" font-size="3" font-family="Montserrat-Bold, Montserrat" font-weight="700"><tspan x="0" y="0">Data</tspan></text>
      <g id="Group_2308" data-name="Group 2308">
        <g id="Group_2307" data-name="Group 2307" clip-path="url(#clip-path)">
          <path id="Path_1291" data-name="Path 1291" d="M125.2,269.264a1.669,1.669,0,0,1-1.6,1.688H65.33a1.669,1.669,0,0,1-1.6-1.688V201.985a1.669,1.669,0,0,1,1.6-1.688H123.6a1.669,1.669,0,0,1,1.6,1.688Z" transform="translate(6.626 20.826)" fill="#4387ea"/>
          <path id="Path_1292" data-name="Path 1292" d="M96.132,225.217H83.218v23.813h17.855V230.157Z" transform="translate(8.653 23.417)" fill="#fff"/>
          <path id="Path_1293" data-name="Path 1293" d="M94.915,230.158h4.941l-4.941-4.941Z" transform="translate(9.869 23.417)" fill="#025a82"/>
          <rect id="Rectangle_1013" data-name="Rectangle 1013" width="15.588" height="1.423" transform="translate(93.005 266.527)" fill="#025a82"/>
          <rect id="Rectangle_1014" data-name="Rectangle 1014" width="15.588" height="1.423" transform="translate(93.005 263.695)" fill="#025a82"/>
          <rect id="Rectangle_1015" data-name="Rectangle 1015" width="15.588" height="1.423" transform="translate(93.005 260.863)" fill="#025a82"/>
          <rect id="Rectangle_1016" data-name="Rectangle 1016" width="15.588" height="1.423" transform="translate(93.005 257.884)" fill="#025a82"/>
          <rect id="Rectangle_1017" data-name="Rectangle 1017" width="10.539" height="1.423" transform="translate(93.005 255.052)" fill="#025a82"/>
          <path id="Path_1294" data-name="Path 1294" d="M110.9,248.978,93.359,262.732,75.593,249.266Z" transform="translate(7.86 25.888)" fill="#025a82"/>
          <rect id="Rectangle_1018" data-name="Rectangle 1018" width="5.071" height="6.208" transform="matrix(1, -0.008, 0.008, 1, 98.66, 285.57)" fill="#025a82"/>
          <rect id="Rectangle_1019" data-name="Rectangle 1019" width="35.313" height="4.358" transform="translate(83.417 270.797) rotate(-0.468)" fill="#023f61"/>
        </g>
      </g>
      <text id="Data_Extraction-3" data-name="Data Extraction" transform="translate(78.554 234.746)" fill="#fff" font-size="3" font-family="Montserrat-Bold, Montserrat" font-weight="700"><tspan x="0" y="0">Data </tspan><tspan y="0" letter-spacing="-0.006em">E</tspan><tspan y="0">xt</tspan><tspan y="0" letter-spacing="-0.038em">r</tspan><tspan y="0" letter-spacing="0.004em">a</tspan><tspan y="0" letter-spacing="0.007em">c</tspan><tspan y="0">tion</tspan></text>
      <text id="MediQlogix-3" data-name="MediQlogix" transform="translate(84.604 228.122)" font-size="3" font-family="Montserrat-Bold, Montserrat" font-weight="700"><tspan x="0" y="0">MediQlogix</tspan></text>
      <g id="Group_2310" data-name="Group 2310">
        <g id="Group_2309" data-name="Group 2309" clip-path="url(#clip-path)">
          <path id="Path_1295" data-name="Path 1295" d="M64.2,232.675a2.319,2.319,0,1,0-2.318,2.318,2.318,2.318,0,0,0,2.318-2.318" transform="translate(6.193 23.952)" fill="#333"/>
          <path id="Path_1296" data-name="Path 1296" d="M273.574,221.093c0,2.173-1.042,4.01-2.273,4.01h-82.75c-1.234,0-2.277-1.837-2.277-4.01V61.308c0-2.174,1.043-4.01,2.277-4.01H271.3c1.231,0,2.273,1.836,2.273,4.01Z" transform="translate(19.368 5.958)" fill="#ffca00"/>
          <path id="Path_1297" data-name="Path 1297" d="M434.033,236.74c0,2.845-1.753,5.248-3.821,5.248H291.1c-2.074,0-3.828-2.4-3.828-5.248V27.547c0-2.846,1.753-5.249,3.828-5.249H430.213c2.068,0,3.821,2.4,3.821,5.249Z" transform="translate(29.87 2.318)" fill="#42ad25"/>
          <path id="Path_1298" data-name="Path 1298" d="M258.909,172.542l-.031,10.824c-.012,4.456-2.94,8.9-8.783,12.3-11.772,6.841-30.914,6.841-42.761,0-5.956-3.439-8.931-7.952-8.918-12.462l.03-10.824c-.012,4.509,2.963,9.023,8.919,12.463,11.848,6.84,30.989,6.84,42.76,0,5.844-3.4,8.772-7.844,8.784-12.3" transform="translate(20.631 17.924)" fill="#025a82"/>
          <path id="Path_1299" data-name="Path 1299" d="M249.982,161.714c11.848,6.84,11.9,17.934.139,24.769s-30.912,6.841-42.76,0-11.9-17.922-.129-24.762,30.912-6.841,42.75-.007" transform="translate(20.634 16.282)" fill="#024462"/>
          <path id="Path_1300" data-name="Path 1300" d="M258.909,160.383l-.031,10.825c-.012,4.455-2.94,8.9-8.783,12.3-11.772,6.841-30.914,6.841-42.761,0-5.956-3.439-8.931-7.954-8.918-12.463l.03-10.824c-.012,4.509,2.963,9.024,8.919,12.462,11.848,6.841,30.989,6.841,42.76,0,5.844-3.4,8.772-7.844,8.784-12.3" transform="translate(20.631 16.659)" fill="#025a82"/>
          <path id="Path_1301" data-name="Path 1301" d="M249.982,149.554c11.848,6.84,11.9,17.934.139,24.769s-30.912,6.841-42.76,0-11.9-17.922-.129-24.762,30.912-6.841,42.75-.007" transform="translate(20.634 15.018)" fill="#024462"/>
          <path id="Path_1302" data-name="Path 1302" d="M258.909,148.223l-.031,10.825c-.012,4.456-2.94,8.9-8.783,12.3-11.772,6.84-30.914,6.84-42.761,0-5.956-3.439-8.931-7.953-8.918-12.463l.03-10.825c-.012,4.509,2.963,9.024,8.919,12.462,11.848,6.841,30.989,6.841,42.76,0,5.844-3.4,8.772-7.844,8.784-12.3" transform="translate(20.631 15.395)" fill="#025a82"/>
          <path id="Path_1303" data-name="Path 1303" d="M249.982,137.394c11.848,6.84,11.9,17.934.139,24.769s-30.912,6.841-42.76,0-11.9-17.922-.129-24.762,30.912-6.841,42.75-.007" transform="translate(20.634 13.753)" fill="#024462"/>
          <path id="Path_1304" data-name="Path 1304" d="M258.909,136.063l-.031,10.824c-.012,4.456-2.94,8.9-8.783,12.3-11.772,6.84-30.914,6.84-42.761,0-5.956-3.439-8.931-7.953-8.918-12.463l.03-10.825c-.012,4.509,2.963,9.024,8.919,12.463,11.848,6.84,30.989,6.84,42.76,0,5.844-3.4,8.772-7.844,8.784-12.3" transform="translate(20.631 14.131)" fill="#025a82"/>
          <path id="Path_1305" data-name="Path 1305" d="M249.982,125.234c11.848,6.84,11.9,17.934.139,24.769s-30.912,6.841-42.76,0-11.9-17.922-.129-24.762,30.912-6.841,42.75-.007" transform="translate(20.634 12.489)" fill="#024462"/>
          <path id="Path_1306" data-name="Path 1306" d="M258.909,123.9l-.031,10.824c-.012,4.456-2.94,8.9-8.783,12.3-11.772,6.84-30.914,6.84-42.761,0-5.956-3.439-8.931-7.953-8.918-12.463l.03-10.824c-.012,4.509,2.963,9.024,8.919,12.463,11.848,6.84,30.989,6.84,42.76,0,5.844-3.4,8.772-7.844,8.784-12.3" transform="translate(20.631 12.866)" fill="#025a82"/>
          <path id="Path_1307" data-name="Path 1307" d="M249.982,113.074c11.848,6.84,11.9,17.934.139,24.769s-30.912,6.841-42.76,0-11.9-17.922-.129-24.762,30.912-6.841,42.75-.007" transform="translate(20.634 11.225)" fill="#024462"/>
          <path id="Path_1308" data-name="Path 1308" d="M258.909,111.743l-.031,10.825c-.012,4.456-2.94,8.9-8.783,12.3-11.772,6.84-30.914,6.84-42.761,0-5.956-3.439-8.931-7.954-8.918-12.463l.03-10.825c-.012,4.509,2.963,9.024,8.919,12.462,11.848,6.841,30.989,6.841,42.76,0,5.844-3.4,8.772-7.844,8.784-12.3" transform="translate(20.631 11.602)" fill="#025a82"/>
          <path id="Path_1309" data-name="Path 1309" d="M249.982,100.914c11.848,6.84,11.9,17.934.139,24.769s-30.912,6.841-42.76,0-11.9-17.922-.129-24.762,30.912-6.841,42.75-.007" transform="translate(20.634 9.96)" fill="#024462"/>
        </g>
      </g>
      <text id="MediQlogix-4" data-name="MediQlogix" transform="translate(232.802 77.814)" font-size="3" font-family="Montserrat-Bold, Montserrat" font-weight="700"><tspan x="0" y="0">MediQlogix</tspan></text>
      <text id="Data_Warehouse" data-name="Data Warehouse" transform="translate(225.129 84.438)" font-size="3" font-family="Montserrat-Bold, Montserrat" font-weight="700"><tspan x="0" y="0">Data </tspan><tspan y="0" letter-spacing="-0.054em">W</tspan><tspan y="0">a</tspan><tspan y="0" letter-spacing="-0.008em">r</tspan><tspan y="0">e</tspan><tspan y="0" letter-spacing="0.004em">h</tspan><tspan y="0">ouse</tspan></text>
      <text id="Hosted_Report_Server" data-name="Hosted Report Server" transform="translate(359.466 33.655)" fill="#fff" font-size="3" font-family="Montserrat-Bold, Montserrat" font-weight="700"><tspan x="0" y="0">Hos</tspan><tspan y="0" letter-spacing="-0.016em">t</tspan><tspan y="0">ed Repo</tspan><tspan y="0" letter-spacing="0.015em">r</tspan><tspan y="0">t Se</tspan><tspan y="0" letter-spacing="0.014em">r</tspan><tspan y="0" letter-spacing="-0.014em">v</tspan><tspan y="0">er</tspan></text>
      <text id="Data-7" data-name="Data" transform="translate(242.407 118.661)" fill="#ffca00" font-size="3" font-family="Montserrat-Bold, Montserrat" font-weight="700"><tspan x="0" y="0">Data</tspan></text>
      <text id="Warehouse" transform="translate(232.796 125.285)" fill="#ffca00" font-size="3" font-family="Montserrat-Bold, Montserrat" font-weight="700"><tspan x="0" y="0" letter-spacing="-0.054em">W</tspan><tspan y="0">a</tspan><tspan y="0" letter-spacing="-0.008em">r</tspan><tspan y="0">e</tspan><tspan y="0" letter-spacing="0.004em">h</tspan><tspan y="0">ouse</tspan></text>
      <g id="Group_2312" data-name="Group 2312">
        <g id="Group_2311" data-name="Group 2311" clip-path="url(#clip-path)">
          <path id="Path_1310" data-name="Path 1310" d="M186.2,133.675a2.319,2.319,0,1,0-2.318,2.318,2.318,2.318,0,0,0,2.318-2.318" transform="translate(18.878 13.658)" fill="#333"/>
          <path id="Path_1311" data-name="Path 1311" d="M287.2,133.675a2.319,2.319,0,1,0-2.318,2.318,2.318,2.318,0,0,0,2.318-2.318" transform="translate(29.38 13.658)" fill="#333"/>
          <path id="Path_1312" data-name="Path 1312" d="M452.2,133.675a2.319,2.319,0,1,0-2.318,2.318,2.318,2.318,0,0,0,2.318-2.318" transform="translate(46.536 13.658)" fill="#333"/>
          <path id="Path_1313" data-name="Path 1313" d="M356.487,98.336a1.521,1.521,0,0,1-1.6,1.371H296.614a1.521,1.521,0,0,1-1.6-1.371V43.672a1.521,1.521,0,0,1,1.6-1.372h58.272a1.521,1.521,0,0,1,1.6,1.372Z" transform="translate(30.675 4.398)" fill="#fff"/>
        </g>
      </g>
      <text id="AD_HOC_Report" data-name="AD HOC Report" transform="translate(333.997 91.229)" font-size="3" font-family="Montserrat-Bold, Montserrat" font-weight="700"><tspan x="0" y="0">AD HOC Repo</tspan><tspan y="0" letter-spacing="0.014em">r</tspan><tspan y="0">t</tspan></text>
      <g id="Group_2314" data-name="Group 2314">
        <g id="Group_2313" data-name="Group 2313" clip-path="url(#clip-path)">
          <path id="Path_1314" data-name="Path 1314" d="M335.256,73.671a.609.609,0,0,1-.591.612H313.178a.609.609,0,0,1-.592-.612v-24.4a.61.61,0,0,1,.592-.612h21.488a.61.61,0,0,1,.591.612Z" transform="translate(32.502 5.06)" fill="#00d9d0"/>
          <path id="Path_1315" data-name="Path 1315" d="M334.235,47.437a2.342,2.342,0,0,1,2.362,2.3v24.6c0,1.267-1.064,1.494-2.362,1.494h-20.4a2.337,2.337,0,0,1-2.36-2.3V49.74a2.339,2.339,0,0,1,2.36-2.3Z" transform="translate(32.387 4.932)" fill="#c6c6c6"/>
          <path id="Path_1316" data-name="Path 1316" d="M327.1,50.391h-11.35V71.32h15.692V54.733Z" transform="translate(32.831 5.24)" fill="#fff"/>
          <path id="Path_1317" data-name="Path 1317" d="M326.027,54.734h4.343l-4.343-4.343Z" transform="translate(33.9 5.24)" fill="#025a82"/>
          <rect id="Rectangle_1023" data-name="Rectangle 1023" width="13.7" height="1.251" transform="translate(349.573 71.357)" fill="#025a82"/>
          <rect id="Rectangle_1024" data-name="Rectangle 1024" width="13.7" height="1.251" transform="translate(349.573 68.867)" fill="#025a82"/>
          <rect id="Rectangle_1025" data-name="Rectangle 1025" width="13.7" height="1.251" transform="translate(349.573 66.378)" fill="#025a82"/>
          <rect id="Rectangle_1026" data-name="Rectangle 1026" width="13.7" height="1.251" transform="translate(349.573 63.76)" fill="#025a82"/>
          <rect id="Rectangle_1027" data-name="Rectangle 1027" width="9.262" height="1.251" transform="translate(351.792 61.271)" fill="#025a82"/>
          <path id="Path_1318" data-name="Path 1318" d="M418.264,98.336a1.521,1.521,0,0,1-1.6,1.371H358.391a1.521,1.521,0,0,1-1.6-1.371V43.672a1.521,1.521,0,0,1,1.6-1.372h58.272a1.521,1.521,0,0,1,1.6,1.372Z" transform="translate(37.098 4.398)" fill="#fff"/>
        </g>
      </g>
      <text id="Standard_Report" data-name="Standard Report" transform="translate(400.951 92.336)" font-size="3" font-family="Montserrat-Bold, Montserrat" font-weight="700"><tspan x="0" y="0">Sta</tspan><tspan y="0" letter-spacing="0.004em">n</tspan><tspan y="0">da</tspan><tspan y="0" letter-spacing="-0.009em">r</tspan><tspan y="0">d Repo</tspan><tspan y="0" letter-spacing="0.014em">r</tspan><tspan y="0">t</tspan></text>
      <g id="Group_2316" data-name="Group 2316">
        <g id="Group_2315" data-name="Group 2315" clip-path="url(#clip-path)">
          <path id="Path_1319" data-name="Path 1319" d="M396.013,48.44a2.342,2.342,0,0,1,2.362,2.3v24.6c0,1.267-1.064,1.494-2.362,1.494h-20.4a2.337,2.337,0,0,1-2.36-2.3V50.743a2.339,2.339,0,0,1,2.36-2.3Z" transform="translate(38.81 5.037)" fill="#fff"/>
          <path id="Path_1320" data-name="Path 1320" d="M397.034,74.674a.609.609,0,0,1-.591.612H374.956a.609.609,0,0,1-.592-.612v-24.4a.61.61,0,0,1,.592-.612h21.488a.61.61,0,0,1,.591.612Z" transform="translate(38.925 5.164)" fill="#025a82"/>
          <path id="Path_1321" data-name="Path 1321" d="M388.874,51.394h-11.35V72.323h15.692V55.736Z" transform="translate(39.254 5.344)" fill="#fff"/>
          <path id="Path_1322" data-name="Path 1322" d="M387.8,55.737h4.343L387.8,51.394Z" transform="translate(40.323 5.344)" fill="#025a82"/>
          <rect id="Rectangle_1029" data-name="Rectangle 1029" width="13.7" height="1.251" transform="translate(417.774 72.464)" fill="#025a82"/>
          <rect id="Rectangle_1030" data-name="Rectangle 1030" width="13.7" height="1.251" transform="translate(417.774 69.975)" fill="#025a82"/>
          <rect id="Rectangle_1031" data-name="Rectangle 1031" width="13.7" height="1.251" transform="translate(417.774 67.485)" fill="#025a82"/>
          <rect id="Rectangle_1032" data-name="Rectangle 1032" width="13.7" height="1.251" transform="translate(417.774 64.868)" fill="#025a82"/>
          <rect id="Rectangle_1033" data-name="Rectangle 1033" width="9.262" height="1.251" transform="translate(419.994 62.378)" fill="#025a82"/>
          <path id="Path_1323" data-name="Path 1323" d="M356.487,157.336a1.521,1.521,0,0,1-1.6,1.371H296.614a1.521,1.521,0,0,1-1.6-1.371V102.672a1.521,1.521,0,0,1,1.6-1.372h58.272a1.521,1.521,0,0,1,1.6,1.372Z" transform="translate(30.675 10.533)" fill="#fff"/>
        </g>
      </g>
      <text id="Real_Time_Alert" data-name="Real Time Alert" transform="translate(334.298 156.364)" font-size="3" font-family="Montserrat-Bold, Montserrat" font-weight="700"><tspan x="0" y="0">R</tspan><tspan y="0" letter-spacing="-0.015em">e</tspan><tspan y="0">al Ti</tspan><tspan y="0" letter-spacing="0.003em">m</tspan><tspan y="0">e Ale</tspan><tspan y="0" letter-spacing="0.015em">r</tspan><tspan y="0">t</tspan></text>
      <g id="Group_2318" data-name="Group 2318">
        <g id="Group_2317" data-name="Group 2317" clip-path="url(#clip-path)">
          <path id="Path_1324" data-name="Path 1324" d="M335.011,130.981H313.279a2.9,2.9,0,0,1-.777-.1,2.8,2.8,0,0,1-.681-.294,2.87,2.87,0,0,1-1.382-2.392,2.8,2.8,0,0,1,.086-.736,2.894,2.894,0,0,1,.3-.726l10.866-18.843a2.892,2.892,0,0,1,.48-.622,2.749,2.749,0,0,1,.6-.444,2.873,2.873,0,0,1,2.764,0,2.747,2.747,0,0,1,.6.444,2.891,2.891,0,0,1,.48.622l10.866,18.843a2.891,2.891,0,0,1,.3.726,2.76,2.76,0,0,1,.086.736,2.87,2.87,0,0,1-1.382,2.392,2.78,2.78,0,0,1-.681.294,2.9,2.9,0,0,1-.777.1" transform="translate(32.278 11.07)" fill="#025a82"/>
          <path id="Path_1325" data-name="Path 1325" d="M324.148,106.5a2.827,2.827,0,0,0-1.368.351,2.753,2.753,0,0,0-.588.439,2.856,2.856,0,0,0-.475.614L310.85,126.746a2.881,2.881,0,0,0-.294.718,2.753,2.753,0,0,0-.085.729,2.838,2.838,0,0,0,1.367,2.367,2.726,2.726,0,0,0,.675.29,2.825,2.825,0,0,0,.768.1h21.733a2.825,2.825,0,0,0,.768-.1,2.727,2.727,0,0,0,.675-.29,2.838,2.838,0,0,0,1.367-2.367,2.75,2.75,0,0,0-.085-.729,2.838,2.838,0,0,0-.294-.718L326.579,107.9a2.825,2.825,0,0,0-.475-.614,2.755,2.755,0,0,0-.588-.439,2.827,2.827,0,0,0-1.368-.351m0-.061a2.84,2.84,0,0,1,2.484,1.435L337.5,126.715a2.867,2.867,0,0,1-2.484,4.3H313.281a2.867,2.867,0,0,1-2.484-4.3l10.866-18.843a2.84,2.84,0,0,1,2.484-1.435" transform="translate(32.276 11.067)" fill="#025a82"/>
          <path id="Path_1326" data-name="Path 1326" d="M323.388,126.93a5.661,5.661,0,1,1,2.208-.446,5.633,5.633,0,0,1-2.208.446" transform="translate(33.035 12.018)" fill="#231f20"/>
          <path id="Path_1327" data-name="Path 1327" d="M328.915,121.244a5.54,5.54,0,1,1-5.54-5.54,5.54,5.54,0,0,1,5.54,5.54" transform="translate(33.048 12.031)" fill="#1a212b"/>
          <path id="Path_1328" data-name="Path 1328" d="M327.828,121.15a4.546,4.546,0,1,1-4.546-4.546,4.547,4.547,0,0,1,4.546,4.546" transform="translate(33.141 12.124)" fill="#5f646b"/>
          <path id="Path_1329" data-name="Path 1329" d="M327.407,121.15a4.547,4.547,0,0,0-4.546-4.546.237.237,0,0,1-.068,0v4.565l4.615-.014v-.007" transform="translate(33.563 12.124)" fill="#ffca00"/>
          <path id="Path_1330" data-name="Path 1330" d="M322.8,118.057h0a.064.064,0,0,1-.064-.064v-1.224a.064.064,0,0,1,.128,0v1.224a.064.064,0,0,1-.064.064" transform="translate(33.558 12.135)" fill="#fcfcfc"/>
          <path id="Path_1331" data-name="Path 1331" d="M322.8,124.891h0a.063.063,0,0,1-.064-.064V123.6a.064.064,0,0,1,.128,0v1.223a.063.063,0,0,1-.064.064" transform="translate(33.558 12.845)" fill="#fcfcfc"/>
          <path id="Path_1332" data-name="Path 1332" d="M320.93,118.881h0a.063.063,0,0,1-.09,0l-.866-.866a.064.064,0,0,1,.091-.091l.866.866a.063.063,0,0,1,0,.091" transform="translate(33.268 12.26)" fill="#fcfcfc"/>
          <path id="Path_1333" data-name="Path 1333" d="M320.189,120.786h0a.064.064,0,0,1-.064.064H318.9a.064.064,0,0,1,0-.128h1.224a.064.064,0,0,1,.064.064" transform="translate(33.152 12.552)" fill="#fcfcfc"/>
          <path id="Path_1334" data-name="Path 1334" d="M321.013,122.74h0a.065.065,0,0,1,0,.091l-.867.866a.064.064,0,0,1-.091-.091l.867-.866a.063.063,0,0,1,.091,0" transform="translate(33.277 12.76)" fill="#fcfcfc"/>
          <path id="Path_1335" data-name="Path 1335" d="M324.872,122.658h0a.063.063,0,0,1,.091,0l.866.866a.064.064,0,0,1-.091.091l-.866-.866a.063.063,0,0,1,0-.091" transform="translate(33.777 12.752)" fill="#fcfcfc"/>
          <path id="Path_1336" data-name="Path 1336" d="M325.647,120.67h0a.064.064,0,0,1,.064-.064h1.224a.064.064,0,1,1,0,.128h-1.224a.064.064,0,0,1-.064-.064" transform="translate(33.86 12.54)" fill="#fff"/>
          <path id="Path_1337" data-name="Path 1337" d="M324.79,118.8h0a.062.062,0,0,1,0-.089l.866-.867a.065.065,0,0,1,.09,0,.065.065,0,0,1,0,.092l-.866.864a.061.061,0,0,1-.091,0" transform="translate(33.769 12.251)" fill="#fcfcfc"/>
          <path id="Path_1338" data-name="Path 1338" d="M323.38,120.772a.534.534,0,1,1-.533-.533.533.533,0,0,1,.533.533" transform="translate(33.513 12.502)" fill="#231f20"/>
          <path id="Path_1339" data-name="Path 1339" d="M324.2,120.721c0,.013.155.084.16.062s0-.057-.022-.065a.052.052,0,0,1-.032-.018.4.4,0,0,0,.15-.01.172.172,0,0,1,.071-.022l.215-.158a1.511,1.511,0,0,0-.152-.013,1.177,1.177,0,0,0-.231.072.985.985,0,0,0-.1.065.153.153,0,0,0-.057.087" transform="translate(33.709 12.529)" fill="#ffc3b5"/>
          <path id="Path_1340" data-name="Path 1340" d="M322.58,120.735s.055-.022.152-.054c.049-.015.108-.034.176-.053l.108-.031a.148.148,0,0,1,.058,0c.02,0,.04,0,.061,0h2.443c.02,0,.041,0,.061,0a.117.117,0,0,1,.059,0l.107.031c.068.018.127.038.176.053.1.031.152.052.152.052s-.055.021-.152.052c-.049.015-.107.035-.176.053l-.107.031a.13.13,0,0,1-.059,0c-.02,0-.041,0-.061,0h-2.443c-.021,0-.041,0-.061,0a.147.147,0,0,1-.058,0l-.108-.031c-.067-.019-.127-.038-.176-.053-.1-.032-.152-.054-.152-.054" transform="translate(33.541 12.539)" fill="#231f20"/>
          <path id="Path_1341" data-name="Path 1341" d="M322.8,121.2s-.019-.045-.045-.126c-.012-.04-.029-.088-.044-.145l-.025-.088a.593.593,0,0,1,0-.1v-2.014c0-.018,0-.034,0-.051a.087.087,0,0,1,0-.047c.01-.032.018-.062.026-.089.014-.055.031-.1.044-.145.025-.079.043-.126.043-.126s.018.046.043.126c.013.041.03.089.044.145.009.028.017.057.026.089a.087.087,0,0,1,0,.047c0,.017,0,.033,0,.051v2.014a.574.574,0,0,1,0,.1l-.025.088c-.015.056-.032.1-.044.145-.026.081-.045.126-.045.126" transform="translate(33.551 12.298)" fill="#231f20"/>
          <path id="Path_1342" data-name="Path 1342" d="M418.264,157.336a1.521,1.521,0,0,1-1.6,1.371H358.391a1.521,1.521,0,0,1-1.6-1.371V102.672a1.521,1.521,0,0,1,1.6-1.372h58.272a1.521,1.521,0,0,1,1.6,1.372Z" transform="translate(37.098 10.533)" fill="#fff"/>
        </g>
      </g>
      <text id="Performance" transform="translate(405.799 157.471)" font-size="3" font-family="Montserrat-Bold, Montserrat" font-weight="700"><tspan x="0" y="0" letter-spacing="-0.01em">P</tspan><tspan y="0">er</tspan><tspan y="0" letter-spacing="-0.007em">f</tspan><tspan y="0">o</tspan><tspan y="0" letter-spacing="-0.003em">r</tspan><tspan y="0">ma</tspan><tspan y="0" letter-spacing="0.003em">n</tspan><tspan y="0" letter-spacing="-0.007em">c</tspan><tspan y="0">e</tspan></text>
      <g id="Group_2320" data-name="Group 2320">
        <g id="Group_2319" data-name="Group 2319" clip-path="url(#clip-path)">
          <path id="Path_1343" data-name="Path 1343" d="M392.976,113.047l-.781-.394c-.49.967-.979,1.932-1.473,2.9-.106-.1-.2-.2-.3-.285a6.489,6.489,0,0,0-4.863-1.72,6.6,6.6,0,0,0-6.135,5.6,6.529,6.529,0,0,0,.5,3.7.192.192,0,0,1,0,.189c-.31.594-.616,1.189-.924,1.784l-.05.1.775.4c.253-.487.5-.969.756-1.459.02.023.036.041.051.061a6.581,6.581,0,0,0,1.774,1.734.147.147,0,0,1,.063.147v6.548a.947.947,0,0,1-.183-.046c-.024-.01-.04-.06-.042-.093-.02-.42-.038-.84-.055-1.261q-.03-.709-.059-1.417c0-.039,0-.077,0-.123-.134-.062-.274-.12-.408-.19-.258-.134-.513-.275-.772-.41a.126.126,0,0,1-.073-.13c0-.528,0-1.055,0-1.583a.614.614,0,0,0-.651-.651c-.476,0-.952,0-1.427,0a.782.782,0,0,0-.585.2c.02-.038.04-.076.054-.1l-.943-1.362-1.762.14c-.339.026-.678.052-1.017.081a.093.093,0,0,1-.115-.068q-.25-.674-.509-1.344a.092.092,0,0,1,.038-.128q1.083-.813,2.164-1.629c.025-.019.054-.035.066-.043l-.2-1.643L374,119.735c-.223-.1-.446-.192-.669-.286-.053-.022-.083-.049-.075-.115.062-.485.118-.97.181-1.454,0-.025.052-.06.084-.065.4-.07.8-.135,1.207-.2l1.446-.238c.038-.007.076-.009.1-.012l.588-1.547-1.814-2.229.586-.85c.092-.132.185-.265.275-.4a.086.086,0,0,1,.118-.043q1.288.431,2.579.857c.03.01.059.024.074.031l1.239-1.1c-.073-.358-.149-.732-.224-1.105-.109-.539-.217-1.079-.329-1.617a.108.108,0,0,1,.067-.142c.421-.215.839-.436,1.255-.658a.091.091,0,0,1,.131.02q.936.974,1.873,1.944c.024.025.045.054.059.068l1.608-.4c.151-.522.307-1.059.464-1.6.106-.36.213-.72.317-1.081a.09.09,0,0,1,.106-.079q.714,0,1.427,0a.1.1,0,0,1,.113.084q.378,1.307.76,2.61a.393.393,0,0,1,.014.064l1.607.4,1.32-1.37c.206-.214.415-.427.619-.644a.086.086,0,0,1,.124-.021q.638.339,1.28.673a.086.086,0,0,1,.051.114q-.272,1.328-.538,2.655c-.007.031-.018.062-.023.081.414.365.825.73,1.24,1.1l1.455-.484c.39-.129.781-.256,1.169-.39a.122.122,0,0,1,.171.06c.261.386.527.769.794,1.151a.1.1,0,0,1-.007.141q-.851,1.04-1.7,2.084c-.024.03-.051.057-.062.07.2.52.391,1.031.587,1.548.9.149,1.826.3,2.749.45a.1.1,0,0,1,.1.1q.081.7.17,1.408a.1.1,0,0,1-.074.13c-.828.351-1.654.707-2.482,1.06-.029.012-.06.022-.077.029-.066.546-.131,1.089-.2,1.642.726.548,1.469,1.108,2.215,1.666a.112.112,0,0,1,.046.158c-.171.437-.336.877-.5,1.316-.023.062-.05.085-.118.078q-1.186-.1-2.371-.189l-.417-.033-.709,1.064-.025-.009c0-.026-.007-.053-.007-.079q0-2.757,0-5.517,0-1.689,0-3.38a.464.464,0,0,0-.484-.484q-.864,0-1.729,0a.139.139,0,0,1-.138-.077c-.068-.114-.141-.226-.219-.333a.121.121,0,0,1-.009-.148q.722-1.419,1.442-2.838l.166-.328" transform="translate(38.81 11.171)" fill="#025a82"/>
          <path id="Path_1344" data-name="Path 1344" d="M389.715,123.9v-7.507c0-.181.057-.242.234-.243h1.76c.19,0,.247.06.247.251v14.985c0,.2-.057.253-.257.253h-1.738c-.19,0-.246-.056-.246-.242v-7.5" transform="translate(40.522 12.077)" fill="#025a82"/>
          <path id="Path_1345" data-name="Path 1345" d="M384,125.135v5.817c0,.033,0,.065,0,.1a.3.3,0,0,1-.316.3c-.466,0-.932.008-1.4,0a1.868,1.868,0,0,1-.425-.094.109.109,0,0,1-.062-.068.757.757,0,0,1-.035-.2q0-4.332,0-8.663,0-1.52,0-3.039c0-.264.108-.373.37-.373h1.5c.263,0,.372.108.372.371q0,2.37,0,4.738v1.117Z" transform="translate(39.694 12.364)" fill="#025a82"/>
          <path id="Path_1346" data-name="Path 1346" d="M385.737,126.384v-4.292c0-.275.106-.383.38-.383.5,0,.99,0,1.485,0,.268,0,.376.108.376.379v5.923q0,1.321,0,2.641a.915.915,0,0,1-.009.156.192.192,0,0,1-.16.178,2.323,2.323,0,0,1-.623.076c-.374-.007-.752,0-1.126,0a.307.307,0,0,1-.322-.325v-4.35" transform="translate(40.108 12.655)" fill="#025a82"/>
          <path id="Path_1347" data-name="Path 1347" d="M387.54,120.606c1.393-2.748,2.782-5.485,4.174-8.231l.466.236c-.086.17-.168.335-.25.5l-3.491,6.883c-.2.389-.394.779-.594,1.168a.264.264,0,0,1-.47.06q-.916-1.05-1.83-2.1l-2.232-2.562a.562.562,0,0,1-.041-.079l-4.184,8.1-.465-.241c.1-.2.2-.39.3-.581q2.015-3.9,4.029-7.8a.3.3,0,0,1,.184-.173.271.271,0,0,1,.292.1c.394.455.79.907,1.186,1.362l2.876,3.3c.013.015.026.029.052.055" transform="translate(39.368 11.684)" fill="#025a82"/>
          <path id="Path_1348" data-name="Path 1348" d="M380.022,127.824v2.495c0,.293-.115.407-.4.407h-1.456a.332.332,0,0,1-.379-.373q0-2.544,0-5.088a.324.324,0,0,1,.35-.352q.762,0,1.525,0a.327.327,0,0,1,.364.368v2.544" transform="translate(39.281 12.988)" fill="#025a82"/>
          <path id="Path_1349" data-name="Path 1349" d="M389.61,122.7v.084q0,2.156,0,4.312a.127.127,0,0,1-.076.129l-1.174.617c-.035.828-.071,1.675-.107,2.521,0,.052,0,.1,0,.156-.009.212-.009.212-.231.241v-.173q0-3.179,0-6.361a.18.18,0,0,1,.089-.173,6.524,6.524,0,0,0,1.433-1.3l.049-.059Z" transform="translate(40.345 12.758)" fill="#025a82"/>
          <path id="Path_1350" data-name="Path 1350" d="M384.049,124.924h1.575v3.432a9.874,9.874,0,0,1-1.575,0Z" transform="translate(39.932 12.989)" fill="#025a82"/>
          <path id="Path_1351" data-name="Path 1351" d="M377.624,125.117V128.2c-.025-.017-.045-.024-.06-.036-.308-.272-.615-.546-.924-.816-.039-.035-.053-.062-.028-.114q.5-1.043.987-2.09s.009-.009.024-.029" transform="translate(39.158 13.009)" fill="#025a82"/>
          <path id="Path_1352" data-name="Path 1352" d="M392,128.213V125.12c.022.039.036.062.049.086q.477,1.008.95,2.017a.117.117,0,0,1,0,.106c-.323.293-.651.581-.995.884" transform="translate(40.759 13.01)" fill="#025a82"/>
          <path id="Path_1353" data-name="Path 1353" d="M356.487,216.336a1.521,1.521,0,0,1-1.6,1.371H296.614a1.521,1.521,0,0,1-1.6-1.371V161.672a1.521,1.521,0,0,1,1.6-1.372h58.272a1.521,1.521,0,0,1,1.6,1.372Z" transform="translate(30.675 16.668)" fill="#fff"/>
        </g>
      </g>
      <text id="Group_Hospital" data-name="Group Hospital" transform="translate(334.769 217.082)" font-size="3" font-family="Montserrat-Bold, Montserrat" font-weight="700"><tspan x="0" y="0">G</tspan><tspan y="0" letter-spacing="-0.009em">r</tspan><tspan y="0">oup Hospital</tspan></text>
      <text id="Managment" transform="translate(338.777 223.706)" font-size="3" font-family="Montserrat-Bold, Montserrat" font-weight="700"><tspan x="0" y="0">Man</tspan><tspan y="0" letter-spacing="0.004em">a</tspan><tspan y="0">g</tspan><tspan y="0" letter-spacing="0.003em">m</tspan><tspan y="0">ent</tspan></text>
      <g id="Group_2322" data-name="Group 2322">
        <g id="Group_2321" data-name="Group 2321" clip-path="url(#clip-path)">
          <path id="Path_1354" data-name="Path 1354" d="M418.264,216.336a1.521,1.521,0,0,1-1.6,1.371H358.391a1.521,1.521,0,0,1-1.6-1.371V161.672a1.521,1.521,0,0,1,1.6-1.372h58.272a1.521,1.521,0,0,1,1.6,1.372Z" transform="translate(37.098 16.668)" fill="#fff"/>
        </g>
      </g>
      <text id="Emergancy" transform="translate(408.147 217.082)" font-size="3" font-family="Montserrat-Bold, Montserrat" font-weight="700"><tspan x="0" y="0">E</tspan><tspan y="0" letter-spacing="0.004em">m</tspan><tspan y="0">e</tspan><tspan y="0" letter-spacing="-0.009em">r</tspan><tspan y="0">ga</tspan><tspan y="0" letter-spacing="0.004em">n</tspan><tspan y="0" letter-spacing="-0.007em">c</tspan><tspan y="0">y</tspan></text>
      <text id="Managment-2" data-name="Managment" transform="translate(406.977 223.706)" font-size="3" font-family="Montserrat-Bold, Montserrat" font-weight="700"><tspan x="0" y="0">Man</tspan><tspan y="0" letter-spacing="0.004em">a</tspan><tspan y="0">g</tspan><tspan y="0" letter-spacing="0.003em">m</tspan><tspan y="0">ent</tspan></text>
      <g id="Group_2324" data-name="Group 2324">
        <g id="Group_2323" data-name="Group 2323" clip-path="url(#clip-path)">
          <path id="Path_1355" data-name="Path 1355" d="M327.145,176.012q1.235.545,2.449,1.134a3.416,3.416,0,0,1,1.824,3.064,29.669,29.669,0,0,1-.042,5.731.568.568,0,0,1-.168.34,10.2,10.2,0,0,1-13.314,1.77,10.1,10.1,0,0,1-2.052-1.8A.435.435,0,0,1,315.7,186a27.242,27.242,0,0,1,.007-6.146,6.989,6.989,0,0,1,.257-1.08,2.22,2.22,0,0,1,.884-1.213,15.341,15.341,0,0,1,3.284-1.6c.016-.006.038.005.091.013a4.04,4.04,0,0,0-.757,1.839,9.606,9.606,0,0,0,.027,3.023.507.507,0,0,1-.185.585.962.962,0,0,0-.231,1.223,1.038,1.038,0,0,0,1.15.513,1.058,1.058,0,0,0,.764-1,.944.944,0,0,0-.79-.957c-.324-.047-.413-.194-.444-.487a8.517,8.517,0,0,1,.18-3.572,2.618,2.618,0,0,1,1.1-1.491c.223-.14.348-.144.464.142.421,1.039.869,2.067,1.307,3.1.046.108.1.213.169.359a6.86,6.86,0,0,0,.113-1.165c.015-.2-.187-.3-.317-.412-.209-.179-.216-.31,0-.492a8.531,8.531,0,0,0,.617-.614c.094-.1.161-.115.266,0,.232.248.478.484.72.724.072.073.164.151.029.237-.523.33-.4.831-.357,1.314.011.119.031.237.055.422.2-.469.389-.886.567-1.3q.442-1.037.875-2.077c.15-.358.156-.36.461-.1a.859.859,0,0,0,.1.065.478.478,0,0,1,.283.293,2.475,2.475,0,0,1,.235.9.769.769,0,0,1-.429.794,2.174,2.174,0,0,0-.911,1.043,10.707,10.707,0,0,0-.668,2.147,2,2,0,0,0,.615,1.773,2.954,2.954,0,0,1,.487.566.171.171,0,0,0,.2.094.16.16,0,0,0,.128-.149.184.184,0,0,0-.148-.2c-.694-.2-.93-.8-1.187-1.374a.818.818,0,0,1-.036-.5,9.608,9.608,0,0,1,.767-2.459,4.1,4.1,0,0,1,.273-.431,1.083,1.083,0,0,1,1.76.06,9.449,9.449,0,0,1,.86,2.2,1.973,1.973,0,0,1-.473,2.105,1.015,1.015,0,0,1-.528.373.294.294,0,0,0-.137.06c-.1.084-.13.187-.03.283a.152.152,0,0,0,.254-.046c.179-.382.55-.6.769-.953a1.835,1.835,0,0,0,.31-1.478,10.458,10.458,0,0,0-.725-2.221,2,2,0,0,0-.691-.814.681.681,0,0,1-.329-.661,2.267,2.267,0,0,0-.265-1.188c-.043-.087-.131-.19-.054-.275s.189,0,.28.028a1.314,1.314,0,0,1,.428.211" transform="translate(32.808 18.253)" fill="#025a82"/>
          <path id="Path_1356" data-name="Path 1356" d="M313.777,178.611l1.281-2.535c.149-.295.3-.588.444-.887.056-.12.12-.165.255-.126a14.759,14.759,0,0,1,3.174,1.34c.015.009.023.032.043.061-.315.174-.624.354-.941.521a3.259,3.259,0,0,0-1.722,2.461,22.041,22.041,0,0,0-.2,4.913c.02.5.065,1,.1,1.5a.876.876,0,0,0,.266.7c.146.118.1.209-.078.258a8.617,8.617,0,0,1-8.242-1.641c-1.159-.951-1.143-.978-1.227-2.464a22.055,22.055,0,0,1,.1-4.048,2.949,2.949,0,0,1,1.824-2.443c.925-.44,1.868-.827,2.828-1.177.211-.076.264.033.335.176q.79,1.57,1.582,3.14a.49.49,0,0,0,.184.248" transform="translate(31.908 18.198)" fill="#025a82"/>
          <path id="Path_1357" data-name="Path 1357" d="M328.9,177.134a14.423,14.423,0,0,1,2.076-.933c.205-.078.418-.141.619-.229.183-.081.272-.051.361.147.468,1.041.955,2.073,1.436,3.108.042.09.091.177.146.286a2.517,2.517,0,0,0,.295-.564c.429-.926.869-1.849,1.288-2.78.089-.2.189-.247.387-.181a14.277,14.277,0,0,1,3.268,1.49,2.144,2.144,0,0,1,.872,1.452,11.152,11.152,0,0,1,.214,2.54c-.007.8-.073,1.6-.1,2.4a.993.993,0,0,1-.312.686,7.983,7.983,0,0,1-5.979,2.563,7.818,7.818,0,0,1-3.012-.61c-.159-.067-.244-.095-.152-.33a3.125,3.125,0,0,0,.1-.889,25.962,25.962,0,0,0-.031-5.279,9.343,9.343,0,0,0-.205-1.06,2.734,2.734,0,0,0-1.272-1.817" transform="translate(34.198 18.293)" fill="#025a82"/>
          <path id="Path_1358" data-name="Path 1358" d="M337.543,177.35c-.772-.282-1.51-.554-2.252-.818-.2-.07-.1-.18-.059-.285a8.757,8.757,0,0,0,.59-1.761,4.233,4.233,0,0,0-.019-1.992,1.854,1.854,0,0,0-1.272-.991.39.39,0,0,0-.191.071,4.3,4.3,0,0,1-2.619.615c-.24-.018-.317.084-.381.274a4.014,4.014,0,0,0,.03,2.451,13.361,13.361,0,0,0,.477,1.263c.066.162.041.233-.119.288-.672.23-1.337.481-1.988.766-.11.049-.187.063-.161-.117a31.152,31.152,0,0,1,.907-5.351,4.4,4.4,0,0,1,.819-1.591.573.573,0,0,0,.132-.3.926.926,0,0,1,.705-.778,4.74,4.74,0,0,1,3.181.083.678.678,0,0,1,.464.475,12.733,12.733,0,0,0,.721,1.8,14.864,14.864,0,0,1,.71,3.188c.1.784.193,1.57.288,2.355.013.107.023.215.036.351" transform="translate(34.268 17.558)" fill="#025a82"/>
          <path id="Path_1359" data-name="Path 1359" d="M319.732,166.937c.254.808.727,1.122,2,1.041.459-.029.91-.147,1.369-.183a3.368,3.368,0,0,1,2.837.842,2.408,2.408,0,0,1,.584,1,5.089,5.089,0,0,1-.093,2.975c-.2-.458-.41-.916-.612-1.374-.1-.237-.223-.473-.308-.718s-.18-.243-.386-.121a3.4,3.4,0,0,1-3.025.323,1.22,1.22,0,0,1-.357-.157c-.248-.2-.429-.093-.626.081a2.855,2.855,0,0,0-.989,2.2c0,.255,0,.509,0,.831a3.519,3.519,0,0,1-.682-3.1,4.019,4.019,0,0,1,.774-1.514c.082-.106.153-.189-.021-.276a1.415,1.415,0,0,1-.463-1.857" transform="translate(33.203 17.358)" fill="#025a82"/>
          <path id="Path_1360" data-name="Path 1360" d="M316.125,172.38c-.2-.562-.405-1.122-.588-1.689-.073-.222-.131-.285-.367-.155a3.665,3.665,0,0,1-1.977.522.558.558,0,0,1-.331-.066c.117-.177.361-.211.453-.41a2.338,2.338,0,0,0-1.856.767,2.406,2.406,0,0,0-.526,1.951,2.8,2.8,0,0,1-.624-2.828,3.167,3.167,0,0,1,2.392-2.058,4.236,4.236,0,0,1,2.225.007,1.969,1.969,0,0,1,1.457,1.729,4.518,4.518,0,0,1-.258,2.23" transform="translate(32.249 17.496)" fill="#025a82"/>
          <path id="Path_1361" data-name="Path 1361" d="M323.047,172.376c.863.076,1.712.153,2.559.221.167.013.2.077.177.227a4.148,4.148,0,0,1-2.606,3.243.363.363,0,0,1-.317-.02,4.14,4.14,0,0,1-2.549-3.152c-.042-.231.01-.291.24-.308.838-.059,1.675-.14,2.5-.212" transform="translate(33.304 17.923)" fill="#025a82"/>
          <path id="Path_1362" data-name="Path 1362" d="M313.376,172.306c.758.065,1.516.13,2.274.191.142.011.187.062.176.205a3.739,3.739,0,0,1-2.274,2.852.478.478,0,0,1-.375-.032,3.65,3.65,0,0,1-2.2-2.775c-.025-.136-.028-.232.152-.247.749-.06,1.5-.127,2.246-.193" transform="translate(32.333 17.916)" fill="#025a82"/>
          <path id="Path_1363" data-name="Path 1363" d="M333.365,173.441c.67.054,1.358.113,2.046.163.19.014.229.1.193.275a3.379,3.379,0,0,1-2.023,2.512.428.428,0,0,1-.4,0,3.387,3.387,0,0,1-2-2.428c-.054-.254,0-.358.278-.372.628-.033,1.255-.1,1.9-.152" transform="translate(34.434 18.034)" fill="#025a82"/>
          <path id="Path_1364" data-name="Path 1364" d="M326.3,176l-.728-.24a2.51,2.51,0,0,1,.406,1.633.414.414,0,0,0,.224.368,2.341,2.341,0,0,1,.989,1.316,11.4,11.4,0,0,1,.556,1.868,2.124,2.124,0,0,1-.74,1.989,1.03,1.03,0,0,0-.33.446.239.239,0,0,1-.316.157.264.264,0,0,1-.21-.263.288.288,0,0,1,.229-.283,1.9,1.9,0,0,0,1.157-1.743,8.834,8.834,0,0,0-.774-2.487,2.47,2.47,0,0,0-.277-.428.959.959,0,0,0-1.528-.007,3.36,3.36,0,0,0-.575,1.115c-.156.487-.287.979-.422,1.473a1.5,1.5,0,0,0,.247,1.336c.236.332.431.726.925.768a.23.23,0,0,1,.182.275.28.28,0,0,1-.225.252.236.236,0,0,1-.3-.147c-.061-.224-.244-.332-.381-.484a2.081,2.081,0,0,1-.757-1.637,7.241,7.241,0,0,1,1.011-2.993,1.49,1.49,0,0,1,.629-.54.617.617,0,0,0,.4-.6,2.131,2.131,0,0,0-.435-1.314c.386-.182.752-.241,1.041.171" transform="translate(33.652 18.268)" fill="#025a82"/>
          <path id="Path_1365" data-name="Path 1365" d="M320.282,181.631a.68.68,0,1,1-.691-.689.7.7,0,0,1,.691.689" transform="translate(33.161 18.814)" fill="#025a82"/>
          <path id="Path_1366" data-name="Path 1366" d="M389.3,187.779h1.074a.259.259,0,0,1,.258.258v.6a.26.26,0,0,1-.259.258H389.3a.26.26,0,0,1-.258-.258v-.6a.258.258,0,0,1,.257-.258" transform="translate(40.452 19.525)" fill="#025a82" fill-rule="evenodd"/>
          <path id="Path_1367" data-name="Path 1367" d="M379.658,171.514v-4.021a3,3,0,0,1,.793-2.04,2.667,2.667,0,0,1,1.96-.878h5.366a2.774,2.774,0,0,1,2.037.912,3.125,3.125,0,0,1,.825,2.124v3.9H389.3v-3.9a1.784,1.784,0,0,0-.463-1.217,1.445,1.445,0,0,0-1.059-.478H382.41a1.338,1.338,0,0,0-.98.442,1.665,1.665,0,0,0-.431,1.135v4.021Z" transform="translate(39.476 17.112)" fill="#025a82" fill-rule="evenodd"/>
          <path id="Path_1368" data-name="Path 1368" d="M393,169.086l5.051,5.841-.021,9.091-5.078,5.873-14.384-.019-5.051-5.9.02-9.091,5.079-5.814Z" transform="translate(38.838 17.579)" fill="#025a82" fill-rule="evenodd"/>
          <path id="Path_1369" data-name="Path 1369" d="M391.929,170.294l4.4,5.092-.017,7.924-4.427,5.12-12.539-.017-4.4-5.145.018-7.924,4.428-5.067Z" transform="translate(38.986 17.705)" fill="#fefefe" fill-rule="evenodd"/>
          <path id="Path_1370" data-name="Path 1370" d="M392.126,170.164l4.4,5.092.056.065v.087l-.018,7.924v.086l-.056.066-4.427,5.12-.07.081h-.106l-12.539-.017h-.107l-.068-.081-4.4-5.145-.055-.064v-.087l.018-7.924v-.087l.057-.065,4.428-5.068.07-.079h.1l12.538.018h.107Zm3.994,5.33-4.276-4.946-12.326-.017-4.3,4.924-.017,7.75,4.277,5,12.325.015,4.3-4.975Z" transform="translate(38.964 17.683)" fill="#00d9d0" fill-rule="evenodd"/>
          <path id="Path_1371" data-name="Path 1371" d="M385.155,184.426a5.564,5.564,0,1,0-5.564-5.563,5.574,5.574,0,0,0,5.564,5.563" transform="translate(39.469 18.019)" fill="#da241a" fill-rule="evenodd"/>
          <path id="Path_1372" data-name="Path 1372" d="M384.393,174.715h1.221a.4.4,0,0,1,.4.4v2.55h2.551a.4.4,0,0,1,.4.4v1.221a.4.4,0,0,1-.4.4h-2.551v2.55a.4.4,0,0,1-.4.4h-1.221a.4.4,0,0,1-.4-.4v-2.55h-2.55a.4.4,0,0,1-.4-.4v-1.221a.4.4,0,0,1,.4-.4H384v-2.55a.4.4,0,0,1,.4-.4" transform="translate(39.621 18.166)" fill="#fefefe" fill-rule="evenodd"/>
          <path id="Path_1373" data-name="Path 1373" d="M383.4,168.387h2.783a.278.278,0,0,1,.278.278v.358a.278.278,0,0,1-.278.278H383.4a.278.278,0,0,1-.278-.278v-.358a.278.278,0,0,1,.278-.278" transform="translate(39.836 17.508)" fill="#025a82" fill-rule="evenodd"/>
          <path id="Path_1374" data-name="Path 1374" d="M379,187.779h1.073a.259.259,0,0,1,.258.258v.6a.26.26,0,0,1-.258.258H379a.259.259,0,0,1-.258-.258v-.6a.258.258,0,0,1,.258-.258" transform="translate(39.381 19.525)" fill="#025a82" fill-rule="evenodd"/>
          <path id="Path_1375" data-name="Path 1375" d="M378.81,188.618v-.6a.255.255,0,0,1,.024-.108l-.74,0,.715.718v-.012" transform="translate(39.313 19.539)" fill="#024d94" fill-rule="evenodd"/>
          <path id="Path_1376" data-name="Path 1376" d="M534,236.9c0,2.874-.988,5.3-2.154,5.3H453.431c-1.169,0-2.157-2.428-2.157-5.3V25.6c0-2.874.988-5.3,2.157-5.3h78.418c1.166,0,2.154,2.429,2.154,5.3Z" transform="translate(46.922 2.11)" fill="#4387ea"/>
        </g>
      </g>
      <text id="Information" transform="translate(522.369 33.655)" fill="#fff" font-size="3" font-family="Montserrat-Bold, Montserrat" font-weight="700"><tspan x="0" y="0">In</tspan><tspan y="0" letter-spacing="-0.006em">f</tspan><tspan y="0">o</tspan><tspan y="0" letter-spacing="-0.004em">r</tspan><tspan y="0">mation</tspan></text>
      <text id="Portal" transform="translate(530.799 40.279)" fill="#fff" font-size="3" font-family="Montserrat-Bold, Montserrat" font-weight="700"><tspan x="0" y="0" letter-spacing="-0.01em">P</tspan><tspan y="0">o</tspan><tspan y="0" letter-spacing="0.014em">r</tspan><tspan y="0">tal</tspan></text>
      <g id="Group_2326" data-name="Group 2326">
        <g id="Group_2325" data-name="Group 2325" clip-path="url(#clip-path)">
          <rect id="Rectangle_1039" data-name="Rectangle 1039" width="70.841" height="24.52" transform="translate(504.564 179.252)" fill="#025a82"/>
        </g>
      </g>
      <text id="Private" transform="translate(529.626 187.549)" fill="#fff" font-size="3" font-family="Montserrat-Bold, Montserrat" font-weight="700"><tspan x="0" y="0" letter-spacing="-0.009em">P</tspan><tspan y="0" letter-spacing="-0.004em">r</tspan><tspan y="0">i</tspan><tspan y="0" letter-spacing="-0.017em">v</tspan><tspan y="0">a</tspan><tspan y="0" letter-spacing="-0.017em">t</tspan><tspan y="0">e</tspan></text>
      <text id="Researchers" transform="translate(529.626 194.173)" fill="#fff" font-size="3" font-family="Montserrat-Bold, Montserrat" font-weight="700"><tspan x="0" y="0">Res</tspan><tspan y="0" letter-spacing="-0.014em">e</tspan><tspan y="0">a</tspan><tspan y="0" letter-spacing="-0.009em">r</tspan><tspan y="0" letter-spacing="-0.003em">c</tspan><tspan y="0" letter-spacing="0.004em">h</tspan><tspan y="0">ers</tspan></text>
      <g id="Group_2328" data-name="Group 2328">
        <g id="Group_2327" data-name="Group 2327" clip-path="url(#clip-path)">
          <path id="Path_1377" data-name="Path 1377" d="M472.5,178.09H469.42v-.507h2.118a.627.627,0,0,0,.434-1.086.625.625,0,0,0-.452-.181h-2.3a2.478,2.478,0,0,0-.254-.344,1.6,1.6,0,0,0-1.719-.343l-.036-.019a2.407,2.407,0,0,1-.344-3.132l.778.779-.126.126a.525.525,0,0,0,0,.761l.289.289a.547.547,0,0,0,.38.163.522.522,0,0,0,.381-.163l2.408-2.408a.521.521,0,0,0,.162-.38.494.494,0,0,0-.162-.38l-.272-.272a.557.557,0,0,0-.761,0l-.109.091-2.262-2.263a.525.525,0,0,0-.761,0l-.2.2-.435-.434a.742.742,0,0,0-1.05,1.05l.434.434-.162.163a.525.525,0,0,0,0,.761l.2.2a4.216,4.216,0,0,0,.29,5.63l-.272.272a1.587,1.587,0,0,0-.453.978H464.6a.534.534,0,0,0-.543.542v.435a.534.534,0,0,0,.543.543h7.911a.533.533,0,0,0,.543-.543v-.416a.586.586,0,0,0-.561-.543m-.977-1.412h0a.272.272,0,0,1,.2.072.276.276,0,0,1,.073.2.279.279,0,0,1-.272.272H469.4v-.127a1.41,1.41,0,0,0-.054-.4Zm-1.34-5.432a.177.177,0,0,1,.254,0l.289.29a.163.163,0,0,1,.054.127.161.161,0,0,1-.054.126l-2.408,2.408a.175.175,0,0,1-.254,0l-.289-.289a.175.175,0,0,1,0-.254l.127-.126,2.19-2.191Zm-3.113-2.172a.194.194,0,0,1,.126-.055.2.2,0,0,1,.127.055l2.263,2.262L467.9,173.02l-2.263-2.262a.175.175,0,0,1,0-.254Zm-1.7.307a.384.384,0,0,1,.543-.543l.435.435-.543.543Zm.47,2.082.761.761a2.763,2.763,0,0,0,.308,3.6c-.054.054-.127.091-.181.145l-.6.6a3.827,3.827,0,0,1-.29-5.1m.019,5.9,1.14-1.14a1.225,1.225,0,0,1,1.72,0,1.092,1.092,0,0,1,.343.851v1.013h-3.548a1.137,1.137,0,0,1,.344-.724m6.825,1.684a.172.172,0,0,1-.181.181h-7.929a.171.171,0,0,1-.181-.181v-.416a.17.17,0,0,1,.181-.181h7.911a.171.171,0,0,1,.181.181Z" transform="translate(48.252 17.506)" fill="#fff"/>
          <path id="Path_1378" data-name="Path 1378" d="M468.019,175.68a.525.525,0,0,0-.761,0l-.181.181a.522.522,0,0,0-.163.38.5.5,0,0,0,.163.381l.181.181a.551.551,0,0,0,.38.162.525.525,0,0,0,.381-.162l.181-.181a.525.525,0,0,0,.162-.381.493.493,0,0,0-.162-.38Zm-.073.688-.181.181a.175.175,0,0,1-.254,0l-.181-.181a.176.176,0,0,1,0-.254l.181-.181a.2.2,0,0,1,.127-.054.168.168,0,0,1,.127.054l.181.181a.176.176,0,0,1,0,.254" transform="translate(48.549 18.25)" fill="#fff"/>
          <rect id="Rectangle_1041" data-name="Rectangle 1041" width="70.841" height="24.52" transform="translate(504.564 211.488)" fill="#025a82"/>
        </g>
      </g>
      <text id="University" transform="translate(530.73 219.123)" fill="#fff" font-size="3" font-family="Montserrat-Bold, Montserrat" font-weight="700"><tspan x="0" y="0">Uni</tspan><tspan y="0" letter-spacing="-0.014em">v</tspan><tspan y="0">ersi</tspan><tspan y="0" letter-spacing="-0.009em">t</tspan><tspan y="0">y</tspan></text>
      <text id="Researchers-2" data-name="Researchers" transform="translate(530.73 225.747)" fill="#fff" font-size="3" font-family="Montserrat-Bold, Montserrat" font-weight="700"><tspan x="0" y="0">Res</tspan><tspan y="0" letter-spacing="-0.014em">e</tspan><tspan y="0">a</tspan><tspan y="0" letter-spacing="-0.009em">r</tspan><tspan y="0" letter-spacing="-0.003em">c</tspan><tspan y="0" letter-spacing="0.004em">h</tspan><tspan y="0">ers</tspan></text>
      <g id="Group_2330" data-name="Group 2330">
        <g id="Group_2329" data-name="Group 2329" clip-path="url(#clip-path)">
          <path id="Path_1379" data-name="Path 1379" d="M475.918,199.52l-6.4-2.223h-.181l-6.4,2.223v5.3h.042a1.135,1.135,0,0,0-.433.9,1.193,1.193,0,0,0,.279.755l-.265.909a.384.384,0,0,0,.07.363c.223.308.825.336,1.007.336a1.4,1.4,0,0,0,1.006-.336.385.385,0,0,0,.071-.363l-.238-.839a1.129,1.129,0,0,0-.083-1.706h.041v-2.8l.574.2v2.727c0,1.133,1.915,2,4.446,2s4.446-.853,4.446-2v-2.727l2.056-.712v-1.468Zm-6.5-1.664,5.55,1.929-5.55,1.93-5.551-1.93Zm-5.746,8.43a.576.576,0,0,1-.574-.573.574.574,0,1,1,.574.573m.461,1.118a1.552,1.552,0,0,1-1.007,0l.181-.629a1.05,1.05,0,0,0,.364.056,1.084,1.084,0,0,0,.294-.042Zm-.28-2.81a.772.772,0,0,0-.181-.014.781.781,0,0,0-.182.014v-2.88l.363.126Zm9.451.363c0,.684-1.594,1.44-3.886,1.44s-3.887-.755-3.887-1.44v-2.53l3.887,1.341,3.886-1.341Zm2.041-3.831-5.927,2.056-5.928-2.056v-.811l5.928,2,5.927-2Z" transform="translate(48.093 20.514)" fill="#fff"/>
          <path id="Path_1380" data-name="Path 1380" d="M471.865,204.112v-.686a3.816,3.816,0,0,1-.727.5l.014.616a3.461,3.461,0,0,0,.713-.434" transform="translate(48.988 21.152)" fill="#fff"/>
          <path id="Path_1381" data-name="Path 1381" d="M465.768,203.49v.686a6.463,6.463,0,0,0,3.313.838,5.457,5.457,0,0,0,.671-.028v-.56c-.223.014-.447.029-.671.029a5.336,5.336,0,0,1-3.313-.965" transform="translate(48.429 21.158)" fill="#fff"/>
          <rect id="Rectangle_1043" data-name="Rectangle 1043" width="70.841" height="24.52" transform="translate(504.564 147.016)" fill="#025a82"/>
        </g>
      </g>
      <text id="Major" transform="translate(529.626 154.871)" fill="#fff" font-size="3" font-family="Montserrat-Bold, Montserrat" font-weight="700"><tspan x="0" y="0">Major</tspan></text>
      <text id="Employers" transform="translate(529.626 161.495)" fill="#fff" font-size="3" font-family="Montserrat-Bold, Montserrat" font-weight="700"><tspan x="0" y="0">Empl</tspan><tspan y="0" letter-spacing="-0.014em">oy</tspan><tspan y="0">ers</tspan></text>
      <g id="Group_2332" data-name="Group 2332">
        <g id="Group_2331" data-name="Group 2331" clip-path="url(#clip-path)">
          <path id="Path_1382" data-name="Path 1382" d="M467.777,141.179a.966.966,0,1,0-.97-.966.969.969,0,0,0,.97.966m0-1.627a.661.661,0,1,1-.666.661.665.665,0,0,1,.666-.661" transform="translate(48.537 14.479)" fill="#fff"/>
          <path id="Path_1383" data-name="Path 1383" d="M471.064,140.606h0a.965.965,0,0,0-.964.967.976.976,0,0,0,.97.97h0a.965.965,0,0,0,.964-.967.976.976,0,0,0-.97-.97m.472,1.44a.653.653,0,0,1-.466.193h0a.667.667,0,0,1-.474-1.135.653.653,0,0,1,.466-.193h0a.667.667,0,0,1,.474,1.135" transform="translate(48.88 14.62)" fill="#fff"/>
          <path id="Path_1384" data-name="Path 1384" d="M473.393,144.863a.966.966,0,1,0-.966.97.969.969,0,0,0,.966-.97m-1.627,0a.661.661,0,1,1,.661.666.664.664,0,0,1-.661-.666" transform="translate(49.021 14.962)" fill="#fff"/>
          <path id="Path_1385" data-name="Path 1385" d="M470.38,148.837a.957.957,0,0,0,.681.283h0a.976.976,0,0,0,.97-.97.965.965,0,0,0-.964-.967h0a.976.976,0,0,0-.97.97.956.956,0,0,0,.283.684m.219-1.154a.666.666,0,0,1,.47-.2h0a.653.653,0,0,1,.466.193.667.667,0,0,1-.474,1.135h0a.655.655,0,0,1-.466-.193.665.665,0,0,1,0-.938" transform="translate(48.88 15.304)" fill="#fff"/>
          <path id="Path_1386" data-name="Path 1386" d="M466.807,149.512a.97.97,0,1,0,.97-.966.969.969,0,0,0-.97.966m1.636,0a.666.666,0,1,1-.666-.661.665.665,0,0,1,.666.661" transform="translate(48.537 15.445)" fill="#fff"/>
          <path id="Path_1387" data-name="Path 1387" d="M463.521,148.149a.976.976,0,0,0,.97.97h0a.965.965,0,0,0,.964-.967.976.976,0,0,0-.97-.97.929.929,0,0,0-.685.283.956.956,0,0,0-.283.684m.5-.469a.653.653,0,0,1,.466-.193h0a.667.667,0,0,1,.474,1.135.653.653,0,0,1-.466.193h0a.667.667,0,0,1-.474-1.135" transform="translate(48.196 15.304)" fill="#fff"/>
          <path id="Path_1388" data-name="Path 1388" d="M463.128,145.834a.97.97,0,1,0-.966-.972.97.97,0,0,0,.966.972m0-1.637a.666.666,0,1,1-.661.666.665.665,0,0,1,.661-.666" transform="translate(48.054 14.962)" fill="#fff"/>
          <path id="Path_1389" data-name="Path 1389" d="M464.485,142.543h0a.976.976,0,0,0,.97-.97.965.965,0,0,0-.964-.967h0a.976.976,0,0,0-.97.97.965.965,0,0,0,.964.967m-.463-1.436a.666.666,0,0,1,.47-.2h0a.653.653,0,0,1,.466.193.667.667,0,0,1-.474,1.135h0a.655.655,0,0,1-.466-.193.665.665,0,0,1,0-.938" transform="translate(48.196 14.62)" fill="#fff"/>
          <path id="Path_1390" data-name="Path 1390" d="M466.426,140.183a5.2,5.2,0,0,0-1.062.448.152.152,0,0,0,.074.285.145.145,0,0,0,.074-.019,4.968,4.968,0,0,1,1-.422.154.154,0,0,0,.1-.19.153.153,0,0,0-.19-.1" transform="translate(48.379 14.575)" fill="#fff"/>
          <path id="Path_1391" data-name="Path 1391" d="M468.92,140.455a5,5,0,0,1,1.006.408.14.14,0,0,0,.072.019.153.153,0,0,0,.073-.287,5.3,5.3,0,0,0-1.066-.434.153.153,0,0,0-.084.294" transform="translate(48.746 14.573)" fill="#fff"/>
          <path id="Path_1392" data-name="Path 1392" d="M471.672,142.374a.151.151,0,0,0-.058.208,5,5,0,0,1,.422,1,.151.151,0,0,0,.146.109.146.146,0,0,0,.043-.007.15.15,0,0,0,.1-.189,5.241,5.241,0,0,0-.447-1.062.153.153,0,0,0-.208-.059" transform="translate(49.035 14.802)" fill="#fff"/>
          <path id="Path_1393" data-name="Path 1393" d="M472.242,145.884a.153.153,0,0,0-.189.1,4.908,4.908,0,0,1-.408,1,.152.152,0,0,0,.135.225.151.151,0,0,0,.134-.079,5.233,5.233,0,0,0,.434-1.066.153.153,0,0,0-.1-.189" transform="translate(49.039 15.168)" fill="#fff"/>
          <path id="Path_1394" data-name="Path 1394" d="M469.985,148.682a5,5,0,0,1-1,.422.153.153,0,0,0,.043.3.146.146,0,0,0,.043-.007,5.31,5.31,0,0,0,1.062-.448.152.152,0,1,0-.149-.266" transform="translate(48.753 15.458)" fill="#fff"/>
          <path id="Path_1395" data-name="Path 1395" d="M465.573,148.714a.153.153,0,0,0-.206.062.151.151,0,0,0,.062.206,5.235,5.235,0,0,0,1.066.434.183.183,0,0,0,.042.005.152.152,0,0,0,.042-.3,4.915,4.915,0,0,1-1.006-.408" transform="translate(48.386 15.461)" fill="#fff"/>
          <path id="Path_1396" data-name="Path 1396" d="M463.407,146.053a.153.153,0,1,0-.293.087,5.3,5.3,0,0,0,.448,1.061.153.153,0,0,0,.134.078.155.155,0,0,0,.074-.02.153.153,0,0,0,.059-.208,4.906,4.906,0,0,1-.422-1" transform="translate(48.153 15.175)" fill="#fff"/>
          <path id="Path_1397" data-name="Path 1397" d="M463.527,142.5a5.236,5.236,0,0,0-.434,1.066.153.153,0,0,0,.1.189.142.142,0,0,0,.042.006.152.152,0,0,0,.147-.11,4.9,4.9,0,0,1,.408-1,.153.153,0,1,0-.268-.146" transform="translate(48.151 14.808)" fill="#fff"/>
          <path id="Path_1398" data-name="Path 1398" d="M467.808,144.338a1.293,1.293,0,1,0-1.294-1.293,1.295,1.295,0,0,0,1.294,1.293m0-2.282a.989.989,0,1,1-.988.989.99.99,0,0,1,.988-.989" transform="translate(48.507 14.739)" fill="#fff"/>
          <path id="Path_1399" data-name="Path 1399" d="M465.327,147.2a.153.153,0,0,0,.152.152h4.9a.153.153,0,0,0,.152-.152,2.6,2.6,0,0,0-2.6-2.6h-.009a2.6,2.6,0,0,0-2.6,2.6m2.6-2.3h.009a2.3,2.3,0,0,1,2.29,2.142h-4.588a2.3,2.3,0,0,1,2.29-2.142" transform="translate(48.384 15.035)" fill="#fff"/>
          <rect id="Rectangle_1045" data-name="Rectangle 1045" width="70.841" height="24.52" transform="translate(504.564 114.779)" fill="#025a82"/>
        </g>
      </g>
      <text id="Insurance" transform="translate(529.626 123.298)" fill="#fff" font-size="3" font-family="Montserrat-Bold, Montserrat" font-weight="700"><tspan x="0" y="0">Insu</tspan><tspan y="0" letter-spacing="-0.039em">r</tspan><tspan y="0">a</tspan><tspan y="0" letter-spacing="0.003em">n</tspan><tspan y="0" letter-spacing="-0.006em">c</tspan><tspan y="0">e</tspan></text>
      <text id="Companies" transform="translate(529.626 129.921)" fill="#fff" font-size="3" font-family="Montserrat-Bold, Montserrat" font-weight="700"><tspan x="0" y="0" letter-spacing="-0.018em">C</tspan><tspan y="0">om</tspan><tspan y="0" letter-spacing="-0.008em">p</tspan><tspan y="0">anies</tspan></text>
      <g id="Group_2334" data-name="Group 2334">
        <g id="Group_2333" data-name="Group 2333" clip-path="url(#clip-path)">
          <path id="Path_1400" data-name="Path 1400" d="M466.638,118.715a1.482,1.482,0,1,0-1.482,1.483,1.483,1.483,0,0,0,1.482-1.483m-1.482,1.164a1.163,1.163,0,1,1,1.162-1.164,1.165,1.165,0,0,1-1.162,1.164m-.295-1.5c0,.1.137.192.295.192a.57.57,0,0,1,.614.51.538.538,0,0,1-.455.493v.03a.16.16,0,0,1-.319,0v-.03a.536.536,0,0,1-.454-.493.16.16,0,0,1,.319,0c0,.1.137.192.295.192s.295-.089.295-.192-.138-.191-.295-.191a.57.57,0,0,1-.614-.511.536.536,0,0,1,.454-.492v-.055a.16.16,0,0,1,.319,0v.055a.537.537,0,0,1,.455.492.16.16,0,1,1-.319,0c0-.1-.138-.191-.295-.191s-.295.089-.295.191m.767-3.291a.16.16,0,0,1,.16-.16h1.66a.16.16,0,0,1,0,.319h-1.66a.159.159,0,0,1-.16-.159m0,.995a.16.16,0,0,1,.16-.16h1.66a.16.16,0,0,1,0,.319h-1.66a.16.16,0,0,1-.16-.159m8.179-.995a.159.159,0,0,1-.16.159h-1.659a.16.16,0,1,1,0-.319h1.66a.16.16,0,0,1,.159.16m0,.995a.16.16,0,0,1-.16.159h-1.659a.16.16,0,1,1,0-.319h1.66a.16.16,0,0,1,.159.16m0,.994a.16.16,0,0,1-.16.16h-1.659a.16.16,0,1,1,0-.319h1.66a.16.16,0,0,1,.159.159m0,.995a.16.16,0,0,1-.16.16h-1.659a.16.16,0,1,1,0-.319h1.66a.16.16,0,0,1,.159.159m0,.995a.16.16,0,0,1-.16.16h-1.659a.16.16,0,1,1,0-.319h1.66a.159.159,0,0,1,.159.159m-3.834-2.62h.841a.16.16,0,0,0,.159-.16v-.906a.159.159,0,0,0-.159-.16h-.841a.16.16,0,0,0-.16.16v.906a.16.16,0,0,0,.16.16m.159-.907h.522v.588h-.522Zm-.159-.6h.841a.159.159,0,0,0,.159-.159v-.907a.158.158,0,0,0-.159-.159h-.841a.159.159,0,0,0-.16.159v.907a.16.16,0,0,0,.16.159m.159-.906h.522v.588h-.522Zm-1.51.906h.841a.159.159,0,0,0,.159-.159v-.907a.159.159,0,0,0-.159-.159h-.841a.159.159,0,0,0-.16.159v.907a.16.16,0,0,0,.16.159m.159-.906h.522v.588h-.522Zm-.159-.6h.841a.16.16,0,0,0,.159-.16v-.907a.16.16,0,0,0-.159-.159h-.841a.16.16,0,0,0-.16.159v.907a.16.16,0,0,0,.16.16m.159-.907h.522v.588h-.522Zm1.192.907h.841a.16.16,0,0,0,.159-.16v-.907a.159.159,0,0,0-.159-.159h-.841a.16.16,0,0,0-.16.159v.907a.16.16,0,0,0,.16.16m.159-.907h.522v.588h-.522Zm4.913,7.613h-.6v-6.265a.16.16,0,0,0-.159-.16h-.335v-.539a.159.159,0,0,0-.159-.16h-1.94a.159.159,0,0,0-.159.16v.539h-.174v-2.1a.16.16,0,0,0-.16-.159h-.47v-.755a.16.16,0,0,0-.159-.16h-.848v-.574a.16.16,0,0,0-.319,0v.574h-.847a.16.16,0,0,0-.16.16v.755h-.47a.16.16,0,0,0-.16.159v2.1h-.174v-.539a.159.159,0,0,0-.159-.16h-1.94a.16.16,0,0,0-.159.16v.539h-.333a.16.16,0,0,0-.16.16v2.474a4.147,4.147,0,0,0-1.871.528.158.158,0,0,0-.076.1,4.144,4.144,0,0,0,2.028,4.623l.014.008a.167.167,0,0,0,.064.013h0a.167.167,0,0,0,.064-.013l.014-.008c.109-.06.214-.125.316-.193h9.494a.159.159,0,0,0,.16-.159v-.951a.159.159,0,0,0-.159-.159m-3.037-6.8h1.621v.38h-1.621Zm-.493.7h2.606v6.106h-2.606Zm-2.644-3.171h1.695v.6h-1.695Zm-.63.915H471.2v8.362h-.222v-2.333a.16.16,0,0,0-.159-.159h-2.193a.16.16,0,0,0-.16.159v2.333h-.222Zm2.414,8.362h-1.874v-2.173h1.874Zm-4.846-6.8h1.621v.38h-1.621Zm2.114.7v6.106h-1.153a4.139,4.139,0,0,0,.614-2.168,4.183,4.183,0,0,0-.12-.995.164.164,0,0,0-.077-.1,4.148,4.148,0,0,0-1.871-.529v-2.314Zm-2.767,7.246a3.819,3.819,0,0,1-1.814-4.159,3.817,3.817,0,0,1,3.627,0,3.82,3.82,0,0,1-1.813,4.159m9.729-.19h-8.919a4.223,4.223,0,0,0,.586-.631h8.333Zm-6.263-4.634h.841a.16.16,0,0,0,.159-.16v-.906a.16.16,0,0,0-.159-.16h-.841a.16.16,0,0,0-.16.16v.906a.16.16,0,0,0,.16.16m.159-.907h.522v.588h-.522Z" transform="translate(48.134 11.417)" fill="#fff"/>
          <rect id="Rectangle_1047" data-name="Rectangle 1047" width="70.841" height="24.52" transform="translate(504.564 82.543)" fill="#025a82"/>
        </g>
      </g>
      <text id="Government" transform="translate(529.625 93.895)" fill="#fff" font-size="3" font-family="Montserrat-Bold, Montserrat" font-weight="700"><tspan x="0" y="0">G</tspan><tspan y="0" letter-spacing="-0.015em">ov</tspan><tspan y="0">e</tspan><tspan y="0" letter-spacing="-0.003em">r</tspan><tspan y="0">n</tspan><tspan y="0" letter-spacing="0.003em">m</tspan><tspan y="0">ent</tspan></text>
      <g id="Group_2336" data-name="Group 2336">
        <g id="Group_2335" data-name="Group 2335" clip-path="url(#clip-path)">
          <path id="Path_1401" data-name="Path 1401" d="M469.527,80.9a.16.16,0,0,0-.06.025l-5.9,3.664a.158.158,0,0,0-.075.135v.8a.16.16,0,0,0,.159.16h1.117v4.786h-1.132a.159.159,0,0,0-.145.159v.639h-.638a.159.159,0,0,0-.16.159v1.117a.16.16,0,0,0,.16.159h13.4a.16.16,0,0,0,.16-.159V91.428a.159.159,0,0,0-.16-.159h-.638V90.63a.16.16,0,0,0-.16-.159h-1.116V85.685h1.116a.16.16,0,0,0,.16-.16v-.8a.158.158,0,0,0-.075-.135l-5.9-3.664a.153.153,0,0,0-.109-.025m.024.349,5.744,3.565v.554H463.808v-.554Zm0,1.087a.957.957,0,1,0,.958.957.96.96,0,0,0-.958-.957m0,.319a.638.638,0,1,1-.638.638.637.637,0,0,1,.638-.638m-4.467,3.032h.957v4.786h-.957Zm1.276,0h2.393v4.786h-2.393Zm2.713,0h.957v4.786h-.957Zm1.276,0h2.393v4.786h-2.393Zm2.712,0h.957v4.786h-.957Zm-9.254,5.1H475.3v.638a.16.16,0,0,0,.159.16h.638v.8H463.01v-.8h.638a.16.16,0,0,0,.16-.16Z" transform="translate(48.109 8.411)" fill="#fff"/>
          <rect id="Rectangle_1049" data-name="Rectangle 1049" width="70.841" height="24.52" transform="translate(504.564 50.307)" fill="#025a82"/>
        </g>
      </g>
      <text id="Hospital" transform="translate(529.626 61.254)" fill="#fff" font-size="3" font-family="Montserrat-Bold, Montserrat" font-weight="700"><tspan x="0" y="0">Hospital</tspan></text>
      <g id="Group_2338" data-name="Group 2338">
        <g id="Group_2337" data-name="Group 2337" clip-path="url(#clip-path)">
          <path id="Path_1402" data-name="Path 1402" d="M475.166,55.326h-2.812V52.6a.167.167,0,0,0-.167-.168h-5.622a.167.167,0,0,0-.167.168v2.721h-2.812a.167.167,0,0,0-.168.167v6.151a.167.167,0,0,0,.168.167h11.58a.167.167,0,0,0,.167-.167V55.493a.167.167,0,0,0-.167-.167M466.4,61.477h-2.644V60.54H466.4Zm0-1.272h-2.644V55.661H466.4Zm3.76,1.231h-1.564V59.4h1.564Zm1.861.041h-1.528V59.231a.167.167,0,0,0-.167-.167h-1.9a.168.168,0,0,0-.168.167v2.247h-1.528V52.772h5.288Zm2.98,0h-2.645V60.54H475Zm0-1.272h-2.645V55.661H475Z" transform="translate(48.185 5.452)" fill="#fff"/>
          <path id="Path_1403" data-name="Path 1403" d="M467.327,56.3h.835v.835a.168.168,0,0,0,.168.168h1.317a.168.168,0,0,0,.168-.168V56.3h.835a.167.167,0,0,0,.168-.167V54.818a.168.168,0,0,0-.168-.168h-.835v-.835a.168.168,0,0,0-.168-.168h-1.317a.168.168,0,0,0-.168.168v.835h-.835a.168.168,0,0,0-.168.168v1.318a.167.167,0,0,0,.168.167m.167-1.318h.836a.167.167,0,0,0,.167-.167v-.836h.984v.836a.167.167,0,0,0,.167.167h.836v.984h-.836a.168.168,0,0,0-.167.168v.835H468.5v-.835a.168.168,0,0,0-.167-.168h-.836Z" transform="translate(48.574 5.578)" fill="#fff"/>
        </g>
      </g>
    </g>
  </g>
</svg>
