<svg xmlns="http://www.w3.org/2000/svg" xmlns:xlink="http://www.w3.org/1999/xlink" width="72" height="72" viewBox="0 0 72 72">
  <defs>
    <clipPath id="clip-path">
      <rect id="Rectangle_433" data-name="Rectangle 433" width="68.287" height="68.392" fill="none"/>
    </clipPath>
    <clipPath id="clip-Mission">
      <rect width="72" height="72"/>
    </clipPath>
  </defs>
  <g id="Mission" clip-path="url(#clip-Mission)">
    <g id="Group_1088" data-name="Group 1088" transform="translate(2 2)">
      <g id="Group_1023" data-name="Group 1023" clip-path="url(#clip-path)">
        <path id="Path_192" data-name="Path 192" d="M31.818,22.086A35.386,35.386,0,0,1,43.806,24.54c.909.347,1.09.828.634,1.639a3.909,3.909,0,0,0-.3.7c-.253.773-.66.987-1.474.645A27.149,27.149,0,0,0,31.014,25.36a27.864,27.864,0,0,0-20.768,9.849,27.5,27.5,0,0,0-6.7,23.213A27.986,27.986,0,0,0,15.794,77.642,28.625,28.625,0,0,0,60.379,53.719a27.046,27.046,0,0,0-2.13-10.571c-.347-.83-.248-1.2.581-1.562,1.918-.827,1.9-.862,2.638,1.1,7.049,18.839-4.7,39.458-24.6,42.525C23.837,87.221,13.049,82.663,5.556,71.737-7.36,52.9,3.416,27.063,25.783,22.773c1.983-.38,4.022-.465,6.036-.687" transform="translate(0 -17.281)" fill="#1a1818"/>
        <path id="Path_193" data-name="Path 193" d="M37.7,84.18a23.566,23.566,0,0,1,19.95-23.373,24.028,24.028,0,0,1,12.274,1.325c.887.33,1.208.728.65,1.581a2.33,2.33,0,0,0-.272.588c-.29.949-.814,1.065-1.733.72a19.448,19.448,0,0,0-15.233.28,19.862,19.862,0,0,0-12.26,16.305,20.337,20.337,0,0,0,40.263,5.7,19.353,19.353,0,0,0-1.073-10.555c-.392-.989-.2-1.481.758-1.789a6.184,6.184,0,0,0,.784-.369c.618-.3,1-.127,1.25.526a23.544,23.544,0,0,1-7.693,27.723c-12.167,9.374-30.649,4.091-35.993-10.3a27.351,27.351,0,0,1-1.182-4.163c-.274-1.378-.336-2.8-.49-4.2" transform="translate(-29.496 -47.358)" fill="#1a1818"/>
        <path id="Path_194" data-name="Path 194" d="M121.4,29.612a26.9,26.9,0,0,1,2.784.814.986.986,0,0,0,1.307-.21c3.873-3.911,7.785-7.783,11.65-11.7a1.88,1.88,0,0,0,.449-1.313c-.1-1.369-.431-2.726-.468-4.094a2.885,2.885,0,0,1,.706-1.9C141.214,7.727,144.673,4.324,148.1.89c.655-.657,1.4-1.171,2.305-.719a2.211,2.211,0,0,1,1.039,1.24A18.165,18.165,0,0,1,152,4.722c.073.855.532,1.075,1.26,1.156a15.289,15.289,0,0,1,2.889.462A2.372,2.372,0,0,1,157.633,7.5a2.306,2.306,0,0,1-.476,1.918q-5.373,5.51-10.91,10.858a2.451,2.451,0,0,1-1.683.458,32.621,32.621,0,0,1-3.547-.49,1.978,1.978,0,0,0-1.93.618q-5.679,5.759-11.449,11.428c-.615.6-.33,1.065-.1,1.63a6.927,6.927,0,1,1-13.277,3.164,7.038,7.038,0,0,1,7.14-7.474M148.765,4.575c-.322.295-.594.524-.844.775-2.3,2.3-4.568,4.644-6.92,6.894a2.222,2.222,0,0,0-.73,2.375c.584,2.633.542,2.629,3.222,3A1.95,1.95,0,0,0,145.327,17c2.382-2.427,4.812-4.807,7.219-7.21.218-.218.4-.476.594-.714-1.168-.373-2.558-.424-3.248-1.145-.718-.75-.76-2.148-1.127-3.36" transform="translate(-89.399 0)" fill="#1a1818"/>
        <path id="Path_195" data-name="Path 195" d="M90.936,125.7a12.088,12.088,0,0,0,11.582-15.674c-.147-.471-.287-1.29-.06-1.463a6.48,6.48,0,0,1,2.153-.924c.136-.039.52.437.637.735a15.286,15.286,0,1,1-16.068-9.906,16.609,16.609,0,0,1,7.049.839c.921.3,1.157.764.65,1.6a2.712,2.712,0,0,0-.27.592c-.271.863-.727,1.049-1.633.744a12.12,12.12,0,0,0-15.893,13.934c1.1,4.964,4.3,8.075,9.266,9.316a6.148,6.148,0,0,0,1.065.2c.505.034,1.014.009,1.521.009" transform="translate(-59.145 -76.981)" fill="#1a1818"/>
        <path id="Path_196" data-name="Path 196" d="M242.041,21.03c.367,1.212.409,2.61,1.127,3.36.69.721,2.08.772,3.248,1.145-.2.238-.376.5-.594.714-2.407,2.4-4.836,4.783-7.219,7.21a1.95,1.95,0,0,1-1.834.618c-2.68-.374-2.637-.371-3.222-3a2.222,2.222,0,0,1,.73-2.375c2.353-2.25,4.618-4.591,6.92-6.894.251-.25.522-.48.844-.775" transform="translate(-182.675 -16.455)" fill="#489f35"/>
      </g>
    </g>
  </g>
</svg>
