<svg xmlns="http://www.w3.org/2000/svg" xmlns:xlink="http://www.w3.org/1999/xlink" width="84" height="94" viewBox="0 0 84 94">
  <defs>
    <clipPath id="clip-Mobility">
      <rect width="84" height="94"/>
    </clipPath>
  </defs>
  <g id="Mobility" clip-path="url(#clip-Mobility)">
    <path id="Path_184" data-name="Path 184" d="M54.5,81.59C60.528,71.154,70.7,52.322,70.7,44.079a21.632,21.632,0,1,0-43.264,0c0,8.243,10.176,27.076,16.208,37.511-7.9.584-16.208,2.571-16.208,6.57,0,4.649,11.215,6.765,21.632,6.765S70.7,92.81,70.7,88.161C70.7,84.165,62.4,82.175,54.5,81.59ZM49.072,25.052A19.046,19.046,0,0,1,68.1,44.079c0,9.248-14.81,34.551-19.027,41.572-4.217-7.017-19.027-32.32-19.027-41.572A19.048,19.048,0,0,1,49.072,25.052Zm0,67.268c-12.552,0-19.027-2.915-19.027-4.16,0-.947,4.508-3.48,15.073-4.049,1.578,2.682,2.663,4.435,2.846,4.733a1.3,1.3,0,0,0,2.216,0c.183-.294,1.264-2.051,2.846-4.733,10.566.565,15.073,3.1,15.073,4.049,0,1.245-6.475,4.16-19.027,4.16Zm.649-33.733L61.307,51.9a1.3,1.3,0,0,0,.653-1.127V37.394a1.3,1.3,0,0,0-.653-1.127L49.721,29.579a1.3,1.3,0,0,0-1.3,0L36.832,36.268a1.3,1.3,0,0,0-.653,1.127V50.772a1.3,1.3,0,0,0,.653,1.127l11.586,6.689a1.326,1.326,0,0,0,.649.176,1.266,1.266,0,0,0,.649-.176Zm-.649-16.009-3.19-1.841,8.981-5.184,3.186,1.841-8.981,5.184Zm1.3,12.625V44.832l8.981-5.184V50.019Zm-1.3-23,3.19,1.841-8.981,5.184L40.095,37.39l8.981-5.184ZM38.788,39.648l3.2,1.845.053,4.171a1.3,1.3,0,0,0,1.3,1.287h.015a1.3,1.3,0,0,0,1.287-1.318l-.034-2.624,3.159,1.822V55.2l-8.981-5.184ZM43.15,10.227a1.3,1.3,0,0,1,0-1.841l5-5a1.376,1.376,0,0,1,.2-.164c.031-.019.065-.034.1-.053s.084-.05.126-.069.088-.027.13-.042a1,1,0,0,1,.115-.034,1.283,1.283,0,0,1,.512,0c.038.008.076.023.115.034a.856.856,0,0,1,.13.042,1.4,1.4,0,0,1,.13.069c.031.019.065.031.1.053a1.375,1.375,0,0,1,.2.164l5,5a1.3,1.3,0,0,1-.921,2.223,1.289,1.289,0,0,1-.921-.382L50.378,7.45v8.644a1.3,1.3,0,1,1-2.605,0V7.45L45,10.227a1.3,1.3,0,0,1-1.841,0Zm-23.5,12.8V15.957a.3.3,0,0,1,.008-.057,1.68,1.68,0,0,1,.019-.195,1.287,1.287,0,0,1,.038-.13c.011-.038.019-.076.034-.115a.905.905,0,0,1,.073-.134.653.653,0,0,1,.05-.088,1.352,1.352,0,0,1,.359-.363c.034-.023.076-.042.111-.061s.073-.042.111-.057.1-.034.153-.05c.031-.008.057-.019.088-.027a1.176,1.176,0,0,1,.26-.027H28.02a1.3,1.3,0,0,1,0,2.605H24.093L30.2,23.375a1.3,1.3,0,0,1-.921,2.223,1.289,1.289,0,0,1-.921-.382L22.252,19.1v3.927a1.3,1.3,0,1,1-2.605,0ZM15.223,48.159a1.3,1.3,0,0,1-.921,2.223A1.289,1.289,0,0,1,13.382,50l-5-5a1.619,1.619,0,0,1-.164-.2c-.019-.031-.031-.061-.05-.092-.027-.046-.05-.088-.073-.134s-.023-.076-.034-.115a.728.728,0,0,1-.038-.13A1.681,1.681,0,0,1,8,44.136C8,44.117,8,44.1,8,44.079A.3.3,0,0,1,8,44.022a1.682,1.682,0,0,1,.019-.195,1.288,1.288,0,0,1,.038-.13c.011-.038.019-.076.034-.115a.905.905,0,0,1,.073-.134.653.653,0,0,1,.05-.088,1.376,1.376,0,0,1,.164-.2l5-5A1.3,1.3,0,0,1,15.223,40L12.446,42.78h8.644a1.3,1.3,0,0,1,0,2.605H12.446l2.777,2.777Zm5.1,25.181c-.034-.019-.065-.031-.1-.053a1.313,1.313,0,0,1-.363-.363c-.019-.031-.034-.061-.05-.092a1.466,1.466,0,0,1-.069-.134,1.142,1.142,0,0,1-.038-.122c-.011-.042-.027-.08-.038-.122a1.4,1.4,0,0,1-.023-.222c0-.011,0-.023,0-.034V65.127a1.3,1.3,0,0,1,2.605,0v3.927l6.112-6.112A1.3,1.3,0,1,1,30.2,64.783l-6.112,6.112h3.927a1.3,1.3,0,0,1,0,2.605H20.942a1.166,1.166,0,0,1-.256-.027c-.038-.008-.073-.023-.111-.034a.9.9,0,0,1-.134-.042,1.3,1.3,0,0,1-.126-.065ZM78.5,65.13V72.2a.294.294,0,0,1-.008.057,1.679,1.679,0,0,1-.019.195c-.008.046-.027.084-.038.13s-.019.076-.034.115-.046.088-.069.134c-.015.031-.031.061-.05.092a1.313,1.313,0,0,1-.363.363c-.031.019-.065.034-.1.053a1.4,1.4,0,0,1-.13.069.729.729,0,0,1-.13.038c-.038.011-.076.027-.115.034a1.418,1.418,0,0,1-.256.027H70.127a1.3,1.3,0,0,1,0-2.605h3.927l-6.112-6.116a1.3,1.3,0,0,1,1.841-1.841l6.112,6.112V65.131a1.3,1.3,0,1,1,2.605,0ZM89.772,45l-5,5a1.3,1.3,0,0,1-1.841-1.841l2.777-2.777H77.063a1.3,1.3,0,1,1,0-2.605h8.644L82.93,40a1.3,1.3,0,0,1,1.841-1.841l5,5a1.622,1.622,0,0,1,.164.2c.019.031.031.061.05.092a1.47,1.47,0,0,1,.069.134c.015.038.023.076.034.115a1.287,1.287,0,0,1,.038.13,1.678,1.678,0,0,1,.019.195c0,.019.008.038.008.057a.294.294,0,0,1-.008.057,1.679,1.679,0,0,1-.019.195c-.008.046-.027.084-.038.13s-.019.076-.034.115-.046.088-.069.134c-.015.031-.031.061-.05.092a1.377,1.377,0,0,1-.164.2ZM67.945,25.209a1.3,1.3,0,0,1,0-1.841l6.116-6.112H70.134a1.3,1.3,0,1,1,0-2.605H77.2a1.2,1.2,0,0,1,.26.027,1.053,1.053,0,0,1,.1.031c.046.015.1.023.141.042s.084.042.126.065.069.034.1.053a1.313,1.313,0,0,1,.363.363c.019.031.031.061.05.092a1.467,1.467,0,0,1,.069.134c.015.038.023.076.034.115a1.292,1.292,0,0,1,.038.13,1.684,1.684,0,0,1,.019.195c0,.019.008.038.008.057v7.071a1.3,1.3,0,1,1-2.605,0V19.1L69.8,25.209a1.3,1.3,0,0,1-1.841,0Z" transform="translate(-6.996 -1.997)" fill="#fff" stroke="rgba(0,0,0,0)" stroke-miterlimit="10" stroke-width="1"/>
  </g>
</svg>
