<svg xmlns="http://www.w3.org/2000/svg" xmlns:xlink="http://www.w3.org/1999/xlink" width="59" height="59" viewBox="0 0 59 59">
  <defs>
    <clipPath id="clip-Right_Arrow">
      <rect width="59" height="59"/>
    </clipPath>
  </defs>
  <g id="Right_Arrow" data-name="Right Arrow" clip-path="url(#clip-Right_Arrow)">
    <g id="Group_1013" data-name="Group 1013" transform="translate(-1167 -809)">
      <circle id="Ellipse_7" data-name="Ellipse 7" cx="28.5" cy="28.5" r="28.5" transform="translate(1168 810)" fill="#42ad25"/>
      <g id="Group_293" data-name="Group 293" transform="translate(1189.544 851.587) rotate(-90)">
        <path id="Path_33" data-name="Path 33" d="M25.753.269a.92.92,0,0,0-1.3,0L13.022,11.722,1.569.269a.919.919,0,0,0-1.3,1.3L12.35,13.65a.9.9,0,0,0,.65.269.936.936,0,0,0,.65-.269L25.731,1.569A.9.9,0,0,0,25.753.269Z" transform="translate(0)" fill="#fff" stroke="#fff" stroke-miterlimit="10" stroke-width="1"/>
      </g>
    </g>
  </g>
</svg>
